<?xml version="1.0" standalone="no"?>
<!DOCTYPE svg PUBLIC "-//W3C//DTD SVG 20010904//EN"
 "http://www.w3.org/TR/2001/REC-SVG-20010904/DTD/svg10.dtd">
<svg version="1.0" xmlns="http://www.w3.org/2000/svg"
 width="1000.000000pt" height="1000.000000pt" viewBox="0 0 1000.000000 1000.000000"
 preserveAspectRatio="xMidYMid meet">
<metadata>
Created by potrace 1.11, written by Peter Selinger 2001-2013
</metadata>
<g transform="translate(0.000000,1000.000000) scale(0.100000,-0.100000)"
fill="#000000" stroke="none">
<path d="M4749 9496 c-2 -2 -49 -7 -104 -10 -56 -4 -112 -8 -125 -10 -14 -3
-51 -7 -84 -11 -32 -4 -68 -8 -80 -10 -11 -2 -37 -6 -56 -9 -19 -3 -48 -8 -65
-11 -16 -3 -43 -7 -60 -10 -75 -13 -239 -51 -367 -85 -176 -48 -438 -139 -568
-197 -158 -70 -200 -90 -260 -121 -36 -19 -94 -50 -130 -68 -107 -55 -312
-183 -443 -276 -779 -554 -1363 -1333 -1669 -2228 -49 -144 -131 -451 -152
-565 -22 -125 -46 -279 -51 -325 -3 -30 -8 -68 -10 -85 -26 -193 -27 -811 -1
-940 2 -11 7 -49 10 -85 4 -36 8 -76 10 -90 7 -40 30 -175 31 -180 1 -3 5 -25
9 -50 4 -25 19 -92 33 -150 14 -58 26 -112 28 -120 12 -55 84 -285 120 -386
81 -223 212 -506 320 -694 21 -36 43 -74 49 -85 23 -40 196 -305 206 -315 3
-3 32 -40 64 -84 68 -91 71 -96 151 -190 101 -120 125 -147 270 -291 140 -139
216 -209 330 -301 33 -26 62 -51 65 -54 13 -14 168 -125 270 -194 63 -42 120
-80 126 -84 5 -4 21 -14 35 -21 292 -173 548 -296 828 -397 105 -38 325 -107
381 -119 8 -2 42 -10 75 -18 81 -21 298 -64 360 -72 28 -4 57 -8 65 -10 8 -2
47 -7 85 -11 39 -3 78 -8 88 -10 9 -1 54 -6 100 -9 68 -6 85 -10 97 -28 37
-52 72 -85 122 -112 47 -26 63 -30 138 -30 75 0 91 3 137 29 215 119 215 413
2 531 -48 27 -63 30 -139 30 -75 0 -91 -4 -138 -30 -29 -16 -67 -44 -83 -63
l-30 -34 -89 6 c-49 4 -97 8 -107 10 -10 2 -47 7 -83 11 -36 4 -74 9 -85 11
-10 2 -35 6 -55 9 -20 3 -47 7 -60 10 -113 22 -197 40 -265 57 -44 11 -84 21
-90 22 -129 29 -432 137 -620 221 -797 354 -1486 977 -1924 1738 -289 503
-464 1032 -536 1627 -27 222 -27 764 -1 930 3 14 7 50 10 80 31 284 142 712
264 1015 72 180 233 509 292 595 9 14 37 57 61 95 213 343 524 698 849 971
369 309 742 528 1215 714 203 80 588 183 800 215 289 43 386 50 685 50 219 -1
388 -8 460 -19 23 -4 46 -7 160 -21 25 -4 79 -12 120 -20 41 -8 86 -16 100
-19 14 -2 92 -20 173 -40 447 -109 898 -306 1292 -564 55 -37 105 -70 110 -74
6 -4 53 -40 105 -80 226 -170 422 -349 600 -548 36 -40 70 -78 75 -84 6 -6 28
-33 50 -61 22 -27 43 -52 46 -55 17 -15 138 -183 207 -286 338 -508 576 -1126
657 -1709 3 -23 7 -51 10 -63 2 -13 7 -58 11 -100 3 -42 8 -85 10 -96 2 -10 6
-95 10 -189 5 -138 10 -179 24 -208 24 -46 59 -69 118 -75 60 -7 108 18 140
72 22 38 23 44 17 221 -3 100 -8 192 -10 205 -2 13 -6 50 -9 83 -4 33 -8 71
-10 85 -2 14 -6 50 -10 80 -7 50 -29 184 -39 235 -7 34 -19 100 -19 102 1 2
-8 32 -18 68 -10 36 -19 66 -19 68 1 6 -15 70 -33 132 -130 451 -314 850 -576
1250 -47 72 -88 132 -91 135 -3 3 -33 40 -65 84 -72 97 -103 135 -236 290 -80
94 -333 339 -460 446 -36 30 -67 57 -70 60 -3 3 -32 25 -65 50 -33 25 -62 48
-65 51 -17 19 -307 214 -385 259 -132 76 -176 100 -297 161 -177 89 -335 157
-523 224 -133 47 -337 109 -396 120 -11 2 -28 6 -37 9 -9 3 -28 7 -42 10 -14
3 -36 8 -50 11 -14 3 -69 14 -122 25 -92 18 -128 24 -223 36 -22 3 -47 7 -55
9 -8 2 -51 7 -94 10 -43 4 -88 9 -100 12 -25 5 -622 14 -627 9z"/>
<path d="M4799 8295 c-2 -1 -38 -5 -79 -8 -351 -27 -757 -137 -1093 -295 -350
-165 -640 -373 -933 -667 l-170 -172 -54 -6 c-198 -24 -318 -218 -249 -404 29
-76 96 -143 175 -173 152 -57 326 23 384 177 23 62 25 133 5 193 -11 33 -10
36 24 74 346 384 772 665 1251 829 324 111 623 157 990 152 241 -4 320 -11
535 -50 78 -14 251 -61 356 -96 519 -172 962 -474 1339 -914 54 -63 170 -224
229 -318 147 -233 266 -501 341 -767 27 -96 24 -84 53 -230 44 -222 56 -355
52 -620 -4 -332 -52 -609 -155 -911 -272 -793 -886 -1444 -1662 -1765 -187
-77 -403 -142 -563 -169 -16 -3 -52 -10 -80 -15 -144 -26 -260 -35 -490 -35
-110 0 -231 3 -270 7 -83 9 -214 27 -235 33 -8 2 -31 6 -50 9 -39 6 -49 8
-140 30 -362 86 -741 263 -1048 490 -108 79 -139 96 -182 96 -116 0 -192 -145
-122 -234 39 -50 295 -227 468 -325 356 -200 795 -342 1189 -387 28 -3 66 -8
85 -10 19 -3 141 -7 270 -9 212 -2 313 2 450 20 25 4 61 8 80 11 19 2 58 9 85
14 28 6 60 12 73 15 92 17 292 72 399 108 630 217 1160 604 1565 1144 248 331
460 781 544 1155 2 10 6 26 8 36 12 46 35 161 40 197 3 22 8 51 11 65 28 144
41 570 23 767 -60 647 -299 1241 -705 1748 -95 119 -319 350 -423 436 -36 30
-67 57 -70 60 -17 21 -342 249 -354 249 -2 0 -38 20 -78 44 -342 202 -810 357
-1213 402 -33 4 -73 9 -90 11 -37 5 -512 13 -516 8z"/>
<path d="M4810 6993 c-33 -3 -190 -28 -237 -37 -64 -13 -223 -59 -281 -82
-583 -228 -1019 -693 -1196 -1275 -39 -132 -53 -196 -76 -374 -9 -72 -6 -386
5 -465 104 -740 601 -1352 1307 -1609 55 -20 225 -66 278 -75 142 -24 139 -24
259 -31 138 -9 169 -3 214 40 46 45 58 107 31 166 -30 67 -60 81 -193 91 -303
21 -524 85 -781 229 -38 21 -149 98 -200 138 -66 51 -232 220 -277 282 -61 84
-113 158 -113 164 0 2 -14 27 -30 54 -31 50 -110 231 -130 298 -59 196 -75
307 -75 513 1 170 7 232 35 360 73 320 221 591 450 821 275 276 593 431 1000
488 68 10 377 7 420 -3 14 -3 41 -9 60 -12 450 -78 867 -353 1116 -736 133
-205 222 -442 261 -698 9 -60 10 -362 1 -425 -15 -111 -39 -216 -73 -321 l-36
-111 -53 -12 c-148 -33 -247 -167 -233 -317 10 -106 69 -192 163 -240 50 -25
69 -29 138 -29 70 1 88 5 135 30 137 75 196 244 134 386 l-19 44 28 73 c50
130 97 322 115 464 15 123 9 437 -11 543 -2 11 -7 40 -11 65 -20 132 -85 329
-163 490 -275 572 -816 982 -1439 1089 -35 6 -75 14 -90 17 -33 6 -383 12
-433 7z"/>
<path d="M9172 4396 c-134 -44 -214 -161 -208 -304 3 -69 18 -110 63 -170 l24
-32 -26 -93 c-262 -911 -893 -1761 -1707 -2299 -193 -128 -514 -303 -631 -344
-59 -21 -84 -39 -103 -77 -42 -79 -22 -160 49 -202 76 -44 108 -35 377 99 317
159 589 337 860 561 132 110 156 132 310 285 307 306 520 586 753 990 136 235
318 673 386 926 22 78 24 81 66 102 64 31 111 77 141 138 95 195 -33 417 -248
430 -38 2 -81 -2 -106 -10z"/>
</g>
</svg>
