<?xml version="1.0" standalone="no"?>
<!DOCTYPE svg PUBLIC "-//W3C//DTD SVG 20010904//EN"
 "http://www.w3.org/TR/2001/REC-SVG-20010904/DTD/svg10.dtd">
<svg version="1.0" xmlns="http://www.w3.org/2000/svg"
 width="512.000000pt" height="512.000000pt" viewBox="0 0 512.000000 512.000000"
 preserveAspectRatio="xMidYMid meet">
<metadata>
Created by potrace 1.11, written by Peter Selinger 2001-2013
</metadata>
<g transform="translate(0.000000,512.000000) scale(0.100000,-0.100000)"
fill="#000000" stroke="none">
<path d="M2457 4974 c-1 -1 -54 -5 -117 -8 -171 -10 -340 -29 -445 -50 -149
-31 -193 -42 -267 -66 -161 -54 -248 -112 -291 -194 -28 -56 -29 -188 -2 -766
2 -41 6 -151 10 -245 3 -93 8 -206 10 -250 2 -44 7 -154 10 -245 4 -91 7 -167
7 -170 0 -3 0 -10 -1 -15 -1 -7 -67 -10 -186 -9 -239 3 -231 8 -308 -216 -62
-181 -105 -363 -101 -433 9 -185 23 -261 53 -284 9 -7 35 -13 59 -13 l42 0 1
-62 c0 -35 2 -83 4 -108 1 -25 6 -103 9 -175 4 -71 9 -146 10 -165 2 -19 7
-80 10 -135 4 -55 9 -111 11 -125 2 -14 7 -59 10 -100 4 -41 8 -91 10 -110 2
-19 6 -64 10 -100 3 -36 8 -78 11 -95 3 -16 7 -46 9 -65 2 -19 6 -52 10 -73 4
-25 2 -44 -7 -55 -10 -12 -10 -14 0 -8 15 9 21 -5 24 -69 2 -27 7 -53 12 -57
6 -4 1 -14 -10 -25 -11 -10 -15 -15 -10 -10 6 4 14 7 18 7 10 0 9 -99 -1 -115
-7 -12 -8 -18 -10 -46 0 -11 -5 -18 -10 -15 -9 6 -9 -7 2 -34 12 -32 15 -60 6
-60 -5 0 -1 -8 9 -18 14 -15 30 -18 94 -15 70 3 77 2 72 -14 -5 -17 -5 -17 6
0 6 9 16 15 21 12 5 -4 6 -11 3 -17 -4 -7 -2 -8 5 -4 6 4 9 12 6 17 -4 5 1 9
10 9 9 0 14 -4 10 -9 -3 -5 -1 -13 5 -16 6 -4 9 -1 8 5 -2 7 7 14 19 16 17 3
21 0 17 -14 -5 -14 -4 -14 4 -2 6 8 8 18 6 22 -3 4 -1 8 4 8 5 0 9 6 10 13 9
83 12 89 38 93 9 1 13 0 10 -3 -3 -4 -1 -12 4 -18 8 -9 6 -14 -5 -19 -11 -4
-15 1 -15 17 0 17 -2 19 -10 7 -6 -9 -5 -20 3 -29 10 -12 9 -13 -3 -6 -8 4
-12 5 -8 0 4 -4 3 -16 -2 -26 -7 -12 -6 -20 2 -25 7 -4 8 -3 4 4 -4 7 5 24 21
39 15 16 27 31 25 35 -1 5 2 8 6 8 5 0 16 6 27 13 14 11 15 16 5 22 -9 6 -11
4 -5 -5 5 -8 3 -11 -5 -8 -7 2 -14 12 -16 22 -2 12 2 16 12 12 12 -5 18 5 16
25 -1 4 8 9 18 12 22 6 28 -8 8 -16 -10 -4 -10 -6 0 -6 8 -1 10 -6 6 -13 -4
-7 -3 -10 1 -5 16 14 15 45 -2 58 -12 10 -15 10 -9 2 4 -7 3 -13 -3 -13 -14 0
-21 14 -13 25 9 12 46 20 39 8 -3 -4 1 -17 9 -28 8 -10 14 -14 14 -9 0 6 -5
15 -12 22 -9 9 -9 12 -1 12 7 0 15 9 18 20 4 11 11 17 17 14 6 -4 6 -10 -1
-17 -14 -14 -14 -37 0 -37 5 0 7 5 4 10 -10 16 14 40 32 33 11 -4 14 -2 9 6
-4 6 -15 10 -23 9 -9 -2 -18 2 -20 8 -2 6 11 10 32 10 26 -1 34 -4 30 -16 -3
-8 4 -21 14 -27 16 -10 20 -9 25 3 3 9 4 20 0 25 -8 13 10 11 26 -4 7 -6 3 3
-9 21 -12 17 -18 32 -12 32 6 0 15 -9 21 -20 7 -13 16 -17 28 -13 15 6 15 4 4
-9 -10 -13 -11 -22 -3 -37 17 -32 12 -38 -9 -11 -19 25 -19 25 -34 5 -9 -11
-16 -23 -16 -27 0 -13 16 -17 30 -6 12 8 12 9 -3 4 -20 -6 -22 5 -5 22 9 9 16
6 29 -14 17 -26 17 -26 24 -5 4 13 1 28 -6 37 -10 12 -9 18 6 32 17 16 17 16
12 -1 -8 -21 2 -49 14 -41 15 9 10 -13 -6 -26 -17 -14 -20 -40 -5 -40 5 0 6 7
3 17 -5 12 -3 14 8 8 8 -4 11 -5 7 0 -4 4 -3 14 4 22 6 7 8 16 5 20 -8 8 12
33 25 33 7 0 6 -5 -1 -13 -6 -8 -8 -17 -4 -20 3 -4 0 -13 -7 -22 -7 -9 -10
-18 -7 -22 4 -3 9 2 13 11 6 16 8 16 25 0 11 -9 19 -12 19 -7 0 6 -6 13 -13
16 -16 6 -15 49 0 54 7 3 10 -6 9 -21 -2 -14 0 -23 5 -21 4 3 11 -4 14 -16 7
-20 8 -20 24 -5 14 14 14 18 1 26 -8 5 -18 6 -22 4 -10 -7 -10 7 1 24 6 11 10
10 15 -3 4 -10 12 -15 22 -11 12 5 14 1 9 -17 -4 -12 -11 -26 -16 -32 -5 -5
-9 -16 -8 -25 0 -9 4 -6 9 8 5 12 14 22 19 22 6 0 7 7 4 17 -5 12 -3 14 7 8 8
-5 11 -4 7 2 -4 6 0 13 8 17 18 6 19 1 5 -24 -7 -14 -6 -17 8 -16 12 1 17 -7
18 -24 2 -44 4 -50 16 -50 9 0 9 3 0 12 -17 17 -15 33 3 18 10 -9 15 -9 15 -1
0 6 -4 11 -9 11 -16 0 -19 39 -5 51 11 9 14 8 12 -7 -2 -11 0 -20 5 -21 18 -7
52 -49 49 -63 -2 -12 -1 -12 6 -2 5 7 8 26 7 42 -2 32 2 35 24 21 9 -6 10 -11
2 -15 -6 -4 -11 -13 -11 -19 0 -8 3 -7 9 2 5 8 23 15 39 16 24 2 29 -1 25 -14
-4 -14 -3 -14 6 -1 5 8 14 11 18 6 4 -4 0 -14 -11 -21 -16 -12 -13 -14 32 -11
43 3 50 1 45 -13 -4 -9 -3 -13 2 -9 4 4 9 24 10 43 2 19 9 42 16 51 10 13 10
17 -2 25 -9 6 -10 9 -2 9 20 0 35 -37 18 -43 -8 -4 -13 -17 -11 -34 2 -15 -3
-39 -11 -53 -13 -21 -13 -22 -1 -8 12 14 17 15 28 5 12 -10 12 -9 2 5 -9 10
-9 18 -3 22 6 4 8 12 5 19 -3 9 11 13 52 12 33 0 63 5 70 12 10 10 13 10 18
-2 3 -8 -3 -17 -16 -21 -16 -5 -18 -8 -7 -15 12 -7 11 -9 -1 -9 -12 -1 -11 -3
3 -11 9 -6 15 -14 12 -20 -4 -5 -1 -9 4 -9 12 0 14 13 4 24 -10 10 -12 36 -3
36 5 0 10 -6 13 -13 2 -6 3 -4 1 6 -1 10 3 16 9 14 7 -2 11 -14 10 -26 -2 -14
1 -20 8 -15 6 3 8 16 5 28 -5 19 -1 22 29 23 24 0 32 -3 28 -11 -11 -17 -12
-36 -2 -36 6 0 9 7 7 16 -2 10 3 19 10 21 7 3 10 -1 6 -10 -9 -25 14 -29 28
-5 16 29 51 35 43 7 -8 -24 16 -35 44 -19 17 9 22 8 27 -5 3 -8 11 -15 16 -15
6 0 4 8 -3 17 -12 15 -12 16 4 10 10 -4 16 -3 13 2 -3 5 2 15 11 22 14 12 15
11 9 -8 -5 -16 -2 -23 14 -28 12 -4 24 -4 27 -1 4 3 -1 6 -10 6 -9 0 -19 5
-22 11 -4 6 0 9 10 7 24 -4 29 16 10 36 -9 9 -15 16 -13 17 30 7 39 6 35 -5
-3 -7 -1 -19 4 -27 8 -12 10 -12 18 1 6 9 6 19 -1 27 -7 8 -7 13 0 13 17 0 34
-27 22 -35 -6 -4 -9 -14 -6 -22 4 -11 1 -13 -15 -8 -14 5 -20 3 -18 -7 3 -27
-1 -39 -13 -32 -7 4 -8 3 -4 -4 4 -6 13 -9 21 -6 8 4 13 10 10 15 -7 11 30 30
40 21 5 -4 5 -1 1 5 -4 7 -3 13 2 13 16 0 22 -13 11 -27 -7 -8 -8 -13 -1 -13
14 0 23 28 12 35 -17 11 -11 20 15 21 21 2 23 -1 15 -12 -7 -7 -9 -17 -6 -23
3 -5 1 -12 -4 -14 -6 -3 -5 -4 2 -3 7 2 12 10 10 19 -1 8 2 18 8 22 8 5 8 11
0 20 -9 11 -7 14 9 12 13 -1 20 -6 17 -14 -3 -7 -1 -13 4 -13 5 0 10 10 12 22
2 13 12 22 27 25 19 3 22 1 12 -11 -12 -14 -5 -46 9 -46 4 0 10 -6 13 -14 4
-10 0 -14 -14 -13 -11 1 -19 9 -19 19 0 9 -4 19 -9 22 -5 4 -6 -5 -2 -21 5
-21 14 -28 32 -28 30 0 32 24 4 47 -20 16 -20 17 -1 35 18 17 19 17 12 -1 -4
-13 0 -23 14 -33 11 -8 18 -19 15 -24 -4 -5 -1 -9 5 -9 7 0 10 7 6 15 -7 19 3
47 15 40 4 -3 6 -13 3 -23 -5 -16 -5 -16 6 0 6 9 16 16 23 14 6 -1 9 -1 4 1
-4 3 -4 9 -1 14 3 5 16 0 28 -12 13 -12 27 -22 32 -22 5 0 15 -7 22 -16 11
-14 11 -13 2 6 -6 13 -16 22 -22 20 -6 -1 -12 3 -14 8 -8 21 34 13 45 -8 11
-21 11 -21 5 3 -6 23 -5 24 11 8 16 -15 20 -14 56 10 23 17 36 33 34 42 -3 11
2 16 15 16 26 0 22 -26 -7 -46 -16 -11 -19 -20 -13 -30 8 -13 10 -12 10 2 0
10 9 22 20 28 11 6 18 15 15 21 -4 5 0 9 8 9 8 0 17 -7 21 -15 3 -9 0 -15 -9
-15 -8 0 -15 -5 -15 -10 0 -13 35 4 46 22 4 6 3 8 -3 5 -6 -4 -13 0 -17 8 -6
18 -1 19 24 5 16 -8 18 -8 14 5 -3 8 -10 12 -15 9 -5 -3 -9 -1 -9 5 0 5 -3 18
-6 28 -5 16 -4 16 10 -1 17 -21 18 -18 19 32 0 12 5 21 11 19 6 -2 10 -12 8
-21 -3 -13 1 -16 16 -12 15 5 19 2 19 -16 1 -49 3 -54 13 -36 6 10 18 14 32
11 20 -4 21 -3 5 7 -9 6 -22 8 -27 5 -6 -3 -10 -2 -10 4 0 19 20 22 45 5 23
-15 25 -15 19 0 -4 12 -2 15 9 10 16 -6 42 30 33 45 -3 5 0 14 8 20 12 10 13
19 7 50 -1 2 -9 -3 -18 -10 -10 -7 -6 0 9 17 20 22 25 33 17 41 -8 8 -8 17 0
31 11 20 -2 42 -16 28 -4 -3 0 -6 8 -6 12 0 12 -2 -1 -9 -21 -14 -33 -2 -18
17 11 13 11 14 -1 7 -10 -5 -12 -4 -7 3 5 9 13 9 26 2 24 -13 27 -13 27 3 0 6
2 18 4 26 2 7 -2 16 -9 18 -7 3 -12 1 -11 -4 4 -21 -2 -34 -12 -27 -8 4 -7 9
2 16 11 8 11 9 -2 5 -20 -7 -21 22 -1 45 13 16 13 17 -7 13 -11 -2 -21 1 -21
7 0 5 8 7 18 4 10 -4 8 1 -8 15 -22 18 -23 19 -3 9 19 -9 22 -8 17 5 -4 8 -2
15 3 15 17 0 23 -13 12 -27 -16 -18 -3 -16 28 4 26 17 26 17 14 -5 -7 -12 -16
-20 -20 -17 -5 3 -12 -2 -15 -11 -4 -11 -1 -14 12 -10 14 5 22 -1 30 -21 11
-25 11 -26 -2 -10 -8 11 -17 14 -20 8 -4 -5 3 -16 14 -24 11 -7 17 -17 14 -20
-4 -4 1 -9 10 -13 9 -3 13 -11 10 -16 -4 -5 -14 2 -24 17 -13 20 -19 23 -23
12 -3 -9 1 -18 9 -21 9 -3 13 -10 10 -15 -4 -5 -1 -12 4 -14 6 -3 5 -4 -2 -3
-7 2 -12 9 -11 15 2 6 -2 11 -7 11 -11 0 -14 -23 -3 -34 7 -7 14 -31 16 -58 1
-13 7 -16 19 -12 10 3 18 0 18 -6 0 -6 -4 -8 -10 -5 -5 3 -10 2 -10 -4 0 -5 3
-11 8 -14 4 -2 2 -2 -5 -1 -21 5 -23 -11 -2 -24 10 -7 19 -8 19 -3 0 5 8 12
17 15 15 6 15 5 -1 -13 -13 -14 -14 -20 -4 -24 7 -2 10 -7 7 -11 -3 -3 -15 3
-27 14 -26 25 -27 25 -29 0 -1 -11 1 -18 5 -16 4 2 18 -2 32 -10 19 -11 20
-14 6 -12 -10 2 -21 -2 -23 -9 -3 -8 5 -10 24 -7 21 3 24 2 13 -6 -14 -9 -7
-14 13 -11 5 1 6 -3 2 -9 -3 -6 -11 -7 -17 -4 -6 4 -9 1 -6 -7 3 -8 12 -13 22
-11 10 2 16 -4 16 -15 0 -14 -2 -15 -9 -4 -5 7 -11 9 -14 4 -4 -6 2 -19 12
-30 15 -16 16 -22 6 -36 -7 -9 -16 -17 -20 -17 -4 0 -2 6 4 14 13 15 4 49 -11
40 -5 -4 -5 -11 1 -18 6 -7 8 -16 4 -19 -13 -13 -20 -7 -19 15 1 13 -2 29 -7
36 -7 8 -4 12 7 12 10 0 14 5 11 10 -5 8 -11 7 -21 -1 -10 -8 -14 -8 -14 0 0
6 6 11 13 11 8 0 7 4 -3 10 -13 8 -12 10 3 10 10 0 16 4 13 9 -7 10 -25 9 -43
-2 -6 -4 -14 -3 -18 3 -3 5 1 10 9 10 9 0 16 4 16 10 0 5 -6 9 -12 7 -16 -3
-18 35 -3 46 6 5 3 6 -8 3 -12 -4 -16 -2 -11 6 5 7 3 8 -6 3 -9 -6 -11 -4 -5
6 8 12 6 12 -8 0 -12 -9 -14 -17 -7 -26 6 -8 6 -15 -2 -23 -9 -9 -9 -12 2 -12
7 0 10 -3 6 -7 -7 -8 -11 -9 -38 -12 -9 -1 -8 -4 2 -11 8 -5 11 -10 6 -10 -6
0 -1 -7 10 -15 18 -14 18 -15 -5 -12 -16 1 -25 -4 -26 -15 -2 -10 1 -18 7 -18
6 0 7 7 4 16 -4 12 -1 14 13 9 21 -6 38 10 21 20 -5 3 -10 11 -10 17 0 7 4 7
13 -1 8 -6 23 -9 35 -6 12 2 24 0 27 -6 6 -8 -9 -13 -29 -10 -10 2 -26 -19
-26 -34 1 -5 6 -3 13 5 13 16 31 20 42 8 4 -3 -2 -9 -13 -12 -11 -4 -23 -14
-27 -23 -5 -15 -3 -15 14 1 11 10 25 15 30 11 18 -10 12 -25 -6 -19 -17 5 -17
5 -1 -9 10 -8 14 -17 10 -21 -4 -4 -2 -7 3 -6 21 5 36 0 30 -10 -3 -5 -12 -7
-19 -4 -7 3 -16 -2 -20 -12 -5 -13 -4 -14 7 -6 22 18 29 1 10 -22 -18 -20 -17
-20 2 -6 26 20 35 32 29 42 -3 4 -1 8 5 8 10 0 41 -27 42 -38 0 -4 2 -15 4
-25 2 -9 -1 -15 -6 -11 -5 3 -9 0 -9 -5 0 -6 6 -11 13 -11 8 0 7 -4 -3 -10
-12 -8 -10 -10 8 -10 13 0 21 -4 18 -9 -4 -5 4 -7 16 -3 16 4 19 2 13 -9 -7
-12 -6 -12 7 -1 11 9 48 12 122 11 90 -2 109 1 126 16 15 14 17 21 9 32 -9 10
-8 13 0 13 7 0 9 5 5 12 -15 24 -12 49 5 43 14 -4 14 -4 1 7 -8 7 -17 24 -19
38 -6 42 -6 45 -12 55 -6 12 -4 65 5 120 12 68 16 92 21 134 5 44 14 107 21
156 7 48 12 94 19 175 3 41 8 82 10 90 2 8 7 51 10 95 4 44 8 96 10 115 2 19
6 78 10 130 4 52 8 118 11 145 2 28 6 104 9 170 4 66 8 149 10 185 2 36 4 73
4 83 1 13 10 17 35 17 19 0 42 3 51 6 21 9 45 56 49 102 3 20 7 69 11 107 13
120 13 140 3 152 -6 7 -8 13 -5 13 3 0 1 15 -4 33 -5 17 -12 44 -14 59 -20
111 -124 399 -159 443 l-24 30 -191 0 -192 0 6 135 c3 74 7 194 10 265 3 72 8
171 10 220 2 50 7 162 11 250 3 88 8 189 9 225 2 36 7 167 10 291 9 269 2 307
-67 377 -122 126 -476 220 -938 248 -93 6 -349 11 -353 8z m-1071 -2286 c1
-28 7 -188 19 -463 10 -227 10 -237 -21 -332 -16 -51 -32 -93 -35 -93 -3 0 -7
30 -8 68 -2 37 -4 85 -6 106 -3 35 -15 300 -19 401 -1 22 9 90 22 150 12 61
25 125 28 144 4 30 11 51 17 51 2 0 3 -15 3 -32z m2419 -398 c-3 -69 -8 -190
-12 -270 -3 -80 -7 -162 -7 -182 0 -21 -3 -38 -6 -38 -3 0 -19 39 -34 86 -28
86 -28 90 -22 253 9 233 23 514 26 541 1 8 15 -48 31 -125 26 -125 29 -153 24
-265z m-2339 -1395 c-1 -8 -5 -17 -8 -21 -5 -4 -4 16 1 34 3 9 9 -1 7 -13z
m2194 5 c0 -5 -9 -10 -20 -10 -11 0 -20 -5 -20 -10 0 -6 7 -10 16 -8 10 2 19
-4 21 -12 4 -13 3 -13 -6 0 -10 14 -15 7 -12 -13 1 -4 -8 -3 -19 3 -14 7 -26
8 -33 2 -7 -5 -20 -8 -29 -7 -10 2 -18 -2 -18 -8 0 -7 -5 -6 -11 3 -9 13 -10
12 -5 -2 3 -10 1 -18 -4 -18 -6 0 -10 9 -10 20 0 11 -4 20 -10 20 -5 0 -7 -6
-4 -14 6 -16 -26 -17 -39 -1 -5 6 -6 -1 -2 -15 l6 -25 -20 23 c-16 18 -24 21
-39 13 -11 -6 -23 -7 -27 -3 -5 4 -5 1 -1 -6 5 -8 13 -9 26 -2 13 7 21 5 31
-7 12 -15 12 -16 -3 -10 -10 3 -23 0 -30 -7 -11 -12 -15 -10 -25 8 -8 14 -12
16 -13 6 0 -13 -1 -13 -10 0 -7 11 -10 11 -10 2 0 -7 -4 -10 -10 -7 -16 10
-11 23 8 20 9 -1 22 0 27 4 16 9 38 13 77 14 20 0 35 4 32 9 -5 8 16 11 61 10
11 0 23 5 27 12 5 8 13 7 29 -2 19 -12 21 -12 16 3 -4 9 -3 14 1 12 4 -3 16
-1 27 4 11 4 21 8 23 8 1 1 2 -3 2 -9z m-2120 -21 c0 -4 6 -7 13 -6 35 1 57
-4 57 -14 0 -6 -9 -8 -20 -4 -12 4 -20 2 -20 -5 0 -6 -5 -8 -11 -4 -8 4 -7 9
2 15 10 6 7 8 -8 6 -20 -1 -21 -3 -8 -17 8 -9 12 -20 8 -23 -3 -4 0 -7 8 -7
12 0 11 -2 -1 -10 -13 -8 -13 -11 -1 -22 11 -11 13 -11 6 1 -5 10 -4 12 4 7 6
-4 9 -12 6 -17 -4 -5 -1 -9 5 -9 6 0 8 -5 4 -11 -3 -6 -9 -7 -13 -3 -3 5 -13
10 -21 12 -10 1 -9 -2 4 -13 11 -8 15 -15 10 -15 -6 0 -16 6 -23 13 -11 10
-12 9 -5 -3 4 -8 9 -23 9 -33 1 -10 9 -26 19 -35 14 -14 18 -15 25 -3 5 8 11
9 15 3 11 -19 -27 -23 -48 -5 -13 11 -16 12 -10 3 6 -8 10 -23 9 -33 -2 -11 1
-15 8 -10 7 4 6 -1 -2 -11 -11 -13 -11 -16 -1 -14 7 2 15 -4 17 -12 4 -12 3
-12 -5 -2 -13 19 -20 17 -42 -10 -10 -13 -16 -35 -15 -51 2 -17 -1 -25 -7 -21
-7 4 -8 2 -4 -5 4 -6 12 -9 17 -6 5 4 9 1 9 -4 0 -14 -17 -14 -25 -1 -4 6 -11
8 -16 4 -5 -3 -6 -11 -2 -17 4 -7 -2 -5 -13 3 -18 14 -18 14 -4 -4 13 -18 13
-19 0 -11 -13 8 -13 7 -1 -9 8 -9 24 -22 35 -27 19 -9 19 -9 4 4 -22 17 -11
31 11 14 14 -11 15 -10 1 7 -14 18 -13 19 3 13 10 -4 16 -3 13 1 -2 4 7 9 20
10 15 1 23 -2 19 -8 -4 -6 -10 -8 -15 -5 -5 3 -16 -7 -24 -23 -12 -24 -20 -28
-49 -27 -35 2 -35 1 -32 -36 2 -29 -1 -38 -15 -42 -18 -5 -21 -21 -7 -43 4 -7
0 -15 -9 -18 -8 -3 -12 -2 -9 3 3 6 -3 14 -12 20 -10 6 -14 11 -10 11 5 0 5 6
0 13 -9 14 -12 56 -3 55 18 -2 21 4 9 20 -7 9 -9 14 -5 10 11 -10 36 23 28 37
-9 14 -10 45 -1 40 4 -3 9 2 13 10 3 9 12 12 22 8 25 -10 7 16 -20 28 -18 8
-17 9 7 4 22 -4 27 -3 21 7 -5 7 4 5 19 -5 29 -19 31 -18 21 7 -3 9 -11 13
-17 9 -6 -4 -7 -1 -2 7 6 9 4 12 -6 8 -8 -3 -22 6 -33 21 -20 26 -20 26 0 9
23 -20 44 -23 44 -7 0 5 -4 8 -9 5 -5 -3 -15 2 -22 12 -7 9 -9 14 -5 10 5 -4
15 0 22 10 17 21 18 40 2 24 -7 -7 -17 -12 -22 -12 -6 0 -2 7 8 15 10 8 24 12
29 8 10 -6 9 -1 -10 44 -3 7 2 16 11 19 9 3 14 10 11 15 -3 4 -12 6 -19 3 -8
-3 -17 -1 -21 5 -4 7 1 9 12 5 16 -5 16 -4 -1 10 -11 9 -15 16 -10 16 6 0 15
-5 22 -12 9 -9 12 -9 12 0 0 6 -8 16 -17 21 -10 6 -13 11 -7 11 6 0 12 11 12
25 0 13 -4 22 -9 19 -17 -10 -9 9 8 22 19 13 53 15 53 3z m140 -28 c8 -1 20
-9 27 -19 10 -17 8 -19 -28 -19 -28 0 -37 3 -29 11 5 5 10 14 10 19 0 5 -9 -1
-20 -14 -10 -13 -19 -19 -20 -13 0 5 6 16 13 24 10 12 9 12 -5 1 -10 -7 -18
-9 -18 -4 0 16 12 23 34 18 12 -2 28 -4 36 -4z m-50 -47 c0 5 7 3 15 -4 12
-10 15 -10 15 0 0 10 3 10 15 0 8 -7 12 -17 9 -22 -4 -6 -10 -5 -15 3 -7 11
-9 11 -9 -1 0 -12 -2 -12 -9 -2 -7 12 -12 12 -30 0 -20 -11 -23 -11 -34 7 -28
49 -13 80 20 39 12 -16 23 -25 23 -20z m169 20 c18 -3 43 -8 55 -11 11 -3 32
-6 46 -6 14 -1 30 -5 35 -8 6 -4 18 -5 27 -4 12 2 15 -2 10 -13 -4 -13 -3 -15
9 -7 20 15 66 18 73 6 4 -6 13 -8 21 -4 10 3 15 -1 15 -12 0 -9 5 -13 10 -10
6 4 8 10 6 14 -7 10 35 8 52 -2 7 -5 12 -4 12 2 0 6 5 11 11 11 5 0 7 -5 3
-12 -5 -8 -2 -9 10 -5 10 4 15 3 11 -3 -3 -6 -1 -10 4 -10 6 0 11 6 11 13 0 8
4 7 10 -3 9 -13 11 -13 20 0 9 13 10 13 10 0 0 -9 3 -11 8 -5 10 13 35 18 27
5 -7 -12 23 -9 45 5 13 8 13 7 0 -10 -14 -17 -13 -18 5 -11 11 5 31 9 45 10
19 1 24 -4 22 -17 -3 -15 0 -16 17 -5 18 11 18 13 3 25 -15 13 -15 13 4 4 12
-6 31 -8 43 -6 13 2 19 0 15 -7 -4 -7 1 -8 17 -2 13 4 53 8 89 9 36 0 71 4 78
8 6 5 12 4 12 -2 0 -6 -5 -11 -12 -11 -20 0 2 -14 27 -17 14 -2 25 1 25 7 0 6
-4 9 -9 5 -5 -3 -12 -1 -15 4 -4 5 2 8 11 7 10 -2 21 2 25 8 5 8 8 7 8 -2 0
-8 5 -10 13 -5 6 4 30 8 52 8 22 0 46 4 54 9 9 6 18 4 25 -5 13 -17 36 -23 36
-10 0 5 -6 12 -12 15 -7 2 -3 4 10 2 12 -1 28 -8 34 -14 7 -7 17 -12 22 -12 6
0 5 5 -2 12 -18 18 -15 27 8 25 20 -1 29 -17 9 -17 -5 0 -7 -5 -3 -11 4 -8 12
-3 20 12 7 13 13 19 14 14 0 -6 9 -11 20 -12 11 -1 19 4 17 10 -1 7 11 12 28
13 17 1 33 2 38 4 20 7 34 5 51 -9 18 -15 18 -15 8 4 -9 18 -7 20 16 21 15 1
44 4 64 7 31 5 40 2 53 -16 10 -14 15 -17 15 -7 0 13 2 13 10 0 8 -13 10 -13
10 -1 0 11 3 10 13 -3 13 -17 14 -17 30 -1 10 10 17 12 17 4 0 -9 4 -8 15 1 8
7 15 9 15 4 0 -5 7 0 16 11 9 12 18 16 22 10 11 -15 33 -17 48 -4 17 14 29 5
29 -19 0 -9 6 -16 13 -14 9 2 11 -2 5 -10 -4 -7 -8 -26 -8 -43 0 -32 -24 -43
-33 -15 -5 13 -3 13 14 0 19 -14 19 -14 0 8 -12 13 -14 22 -7 22 7 0 9 4 6 10
-3 5 -1 10 5 10 6 0 8 5 4 11 -4 8 -12 3 -21 -12 -8 -13 -12 -17 -9 -7 2 9 -5
24 -16 35 -12 10 -18 12 -14 6 9 -15 -10 -18 -19 -3 -4 6 -11 8 -16 4 -15 -9
10 -34 27 -27 9 3 12 0 9 -9 -7 -19 -32 -19 -39 -1 -3 8 -10 11 -16 8 -6 -4
-7 1 -3 11 4 12 3 15 -6 10 -7 -4 -9 -17 -6 -29 5 -17 4 -18 -4 -8 -10 15 -45
25 -36 11 3 -5 -5 -14 -17 -21 -20 -11 -21 -10 -11 2 8 10 9 19 1 29 -8 12 -9
11 -3 -5 3 -11 3 -16 -1 -12 -4 4 -13 2 -21 -4 -10 -9 -13 -8 -13 0 0 7 -5 9
-11 5 -8 -4 -7 -9 2 -16 11 -8 11 -9 -1 -5 -24 6 -18 32 8 30 12 -2 22 2 22 7
0 6 -3 9 -7 9 -22 -4 -33 2 -27 14 5 7 0 6 -11 -3 -17 -14 -18 -13 -12 3 5 14
3 16 -11 9 -9 -5 -25 -8 -34 -7 -10 2 -20 -1 -24 -6 -3 -5 -10 -7 -15 -4 -5 3
-6 -1 -3 -9 7 -19 -7 -21 -26 -3 -12 10 -12 9 -1 -6 9 -11 21 -15 32 -12 25 8
24 -10 -1 -28 -20 -14 -20 -15 -3 -22 27 -12 48 -11 45 4 -1 7 2 10 9 5 8 -5
9 -3 4 7 -7 11 -5 11 10 -1 15 -12 17 -12 10 -1 -5 10 -4 12 4 7 6 -4 8 -12 5
-18 -4 -7 -2 -8 4 -4 8 5 10 1 6 -11 -4 -14 -3 -15 4 -4 7 9 12 10 16 2 4 -6
2 -11 -4 -11 -6 0 -8 -5 -4 -11 4 -8 9 -7 15 2 5 8 9 9 9 3 0 -5 -6 -16 -12
-24 -10 -11 -9 -11 6 0 18 14 18 14 5 -7 -9 -16 -16 -19 -21 -10 -6 9 -8 8 -8
-2 0 -11 -4 -9 -14 4 -13 19 -15 19 -33 3 -15 -14 -22 -15 -31 -6 -6 6 -15 9
-19 5 -4 -4 -1 -13 7 -20 10 -9 11 -9 6 1 -11 19 -1 14 20 -10 12 -14 14 -18
4 -13 -8 4 -12 5 -8 0 4 -4 2 -15 -5 -23 -9 -13 -9 -14 0 -8 9 5 11 2 6 -10
-5 -13 -8 -14 -11 -5 -4 11 -6 11 -13 0 -7 -12 -9 -12 -9 0 0 11 -4 9 -15 -5
-10 -12 -14 -14 -12 -4 2 8 2 11 -1 6 -2 -4 -9 -2 -14 5 -6 10 -7 7 -3 -10 5
-17 4 -22 -6 -19 -8 3 -13 12 -11 22 3 19 -9 21 -26 4 -9 -9 -12 -9 -12 0 0 7
5 12 11 12 5 0 7 5 3 11 -4 8 -12 3 -21 -12 -11 -18 -13 -19 -8 -4 5 16 4 18
-6 8 -10 -10 -7 -19 14 -41 15 -16 24 -33 20 -38 -5 -5 1 -1 13 9 24 20 41 23
26 4 -7 -8 -7 -18 -2 -27 14 -22 12 -29 -7 -25 -10 2 -20 4 -23 4 -3 1 2 5 10
11 8 5 11 13 6 17 -5 4 -11 2 -13 -5 -4 -10 -9 -8 -20 5 -8 10 -11 11 -7 3 6
-12 5 -13 -7 -5 -8 6 -3 0 11 -12 14 -13 20 -23 13 -23 -6 0 -15 5 -18 11 -5
7 -14 4 -28 -8 -11 -10 -17 -13 -14 -7 4 7 0 17 -8 24 -13 10 -19 9 -38 -6
-17 -15 -19 -15 -8 -2 11 15 10 17 -8 13 -15 -3 -19 0 -14 8 4 7 0 6 -10 -2
-20 -16 -34 -8 -21 12 5 7 1 4 -8 -6 -12 -12 -18 -15 -18 -6 0 8 -6 5 -14 -6
-8 -11 -12 -24 -9 -29 4 -5 0 -6 -7 -1 -9 6 -11 4 -5 -6 8 -12 6 -12 -8 0 -10
7 -17 9 -17 3 0 -6 6 -12 13 -15 6 -2 8 -8 4 -13 -4 -5 -12 -3 -16 5 -5 7 -11
12 -15 12 -18 -3 -23 0 -23 15 0 14 2 14 14 -2 7 -10 13 -14 13 -9 0 5 -8 17
-17 27 -15 17 -15 21 -3 30 12 8 12 9 -2 4 -11 -3 -17 -1 -15 7 1 7 -4 11 -12
9 -8 -2 -18 3 -22 10 -7 10 -9 10 -9 0 0 -7 7 -15 15 -18 8 -4 12 -10 9 -16
-3 -5 2 -19 13 -31 18 -21 18 -21 -1 -7 -18 13 -19 13 -11 0 4 -8 4 -12 0 -7
-5 4 -17 -1 -27 -10 -18 -16 -20 -16 -41 8 -12 13 -19 20 -14 15 10 -14 9 -26
-4 -26 -5 0 -8 4 -4 9 3 5 0 13 -6 17 -7 4 -9 3 -6 -2 3 -6 -5 -11 -18 -12
-13 -1 -27 3 -30 8 -3 6 -12 10 -18 10 -7 0 -6 -4 3 -10 11 -8 8 -9 -12 -6
-15 3 -33 8 -40 11 -7 4 -4 -1 6 -9 11 -9 14 -16 7 -16 -7 0 -10 -4 -7 -8 2
-4 1 -14 -5 -22 -6 -11 -9 -12 -9 -2 0 7 -4 11 -9 7 -5 -3 -13 -1 -16 5 -5 8
-12 7 -23 -2 -15 -12 -16 -11 -3 5 7 9 11 18 7 18 -3 1 -10 2 -15 3 -19 2 -24
16 -6 16 10 0 15 3 11 7 -10 11 -36 12 -36 2 0 -5 -4 -9 -9 -9 -5 0 -8 11 -7
25 2 14 -1 22 -7 18 -6 -4 -7 -1 -2 7 6 9 4 11 -5 5 -8 -5 -11 -4 -7 3 11 16
-2 38 -22 39 -13 1 -18 -4 -16 -15 2 -9 4 -19 4 -22 1 -3 5 1 10 9 6 9 11 10
15 2 4 -6 2 -11 -5 -11 -7 0 -4 -6 6 -14 19 -14 19 -15 2 -33 -9 -11 -14 -23
-10 -28 5 -4 2 -5 -5 -1 -7 4 -9 12 -6 18 5 7 2 8 -6 3 -8 -5 -11 -4 -7 2 10
16 -28 8 -58 -11 -17 -11 -24 -13 -19 -5 6 10 3 10 -11 -1 -10 -8 -16 -10 -12
-4 3 6 0 11 -8 11 -20 0 -19 -3 6 -28 11 -11 18 -23 15 -27 -4 -3 -13 3 -22
14 -14 18 -15 18 -4 -4 8 -17 17 -21 31 -17 11 4 18 3 17 -2 -2 -4 2 -8 7 -8
6 0 9 4 7 8 -1 5 3 7 10 4 7 -2 12 -10 10 -16 -1 -7 2 -10 8 -6 6 3 8 11 5 16
-4 5 -3 9 2 10 67 7 76 7 63 -1 -8 -5 -18 -6 -22 -4 -4 3 -8 0 -8 -5 0 -6 7
-11 15 -11 8 0 15 -4 15 -10 0 -16 -27 -11 -34 6 -6 15 -9 15 -24 3 -19 -16
-69 -18 -91 -5 -10 6 -12 5 -7 -2 4 -7 2 -12 -5 -12 -6 0 -9 8 -6 20 6 25 -25
66 -42 56 -8 -5 -9 -12 -2 -19 6 -8 5 -18 -4 -31 -8 -10 -11 -24 -8 -32 3 -8
1 -15 -3 -15 -42 -6 -64 -7 -64 -5 0 2 10 11 22 22 18 16 21 17 15 2 -4 -12
-2 -15 9 -11 11 4 12 9 3 19 -9 11 -8 14 2 15 12 0 12 1 0 6 -11 4 -11 7 0 13
10 7 10 11 0 24 -10 12 -10 16 -2 16 17 0 4 18 -22 30 -20 10 -20 10 -4 -3 22
-18 21 -22 -1 -24 -10 -1 -19 5 -20 13 -1 8 -3 21 -4 29 -1 8 -6 15 -11 15 -5
0 -6 -8 -3 -17 5 -15 4 -15 -9 1 -11 14 -15 16 -15 5 0 -12 -2 -12 -10 1 -9
13 -10 13 -10 0 0 -13 -1 -13 -10 0 -7 12 -9 10 -7 -8 0 -12 5 -22 10 -22 4 0
5 -5 2 -11 -9 -13 -15 -7 -20 21 -5 26 -15 40 -15 20 0 -9 -5 -7 -14 6 -14 19
-14 19 -13 -1 1 -13 -3 -19 -13 -16 -8 2 -21 4 -27 4 -15 0 -17 13 -3 22 6 3
10 1 10 -5 0 -6 5 -8 10 -5 6 3 10 1 10 -6 0 -7 2 -10 5 -7 3 3 3 12 0 20 -7
17 -36 20 -48 4 -6 -7 -7 -4 -3 7 4 12 2 16 -6 11 -6 -4 -8 -3 -5 3 3 5 0 10
-8 10 -8 0 -15 -5 -15 -11 0 -5 -7 -1 -15 10 -12 15 -14 15 -9 2 4 -13 0 -16
-15 -15 -12 1 -21 5 -21 10 0 5 7 7 14 4 10 -4 13 -1 9 9 -4 10 -9 11 -17 5
-9 -8 -12 -3 -12 19 0 16 4 26 9 23 6 -3 7 -1 3 6 -4 6 -12 9 -17 6 -5 -4 -9
-1 -9 4 0 13 12 14 26 4 5 -5 -2 3 -16 17 -14 14 -27 21 -29 16 -2 -4 -7 -2
-12 5 -7 12 -9 12 -9 0 0 -11 -4 -9 -14 5 -14 18 -14 18 -13 0 1 -11 -5 -20
-16 -21 -9 -2 -14 1 -11 6 3 6 2 16 -3 22 -4 7 0 4 10 -6 9 -11 17 -14 17 -9
0 6 -4 14 -10 17 -5 3 -15 16 -21 28 -7 12 -8 19 -4 15 5 -4 15 -2 23 5 10 8
13 8 9 1 -4 -7 2 -23 14 -35 11 -13 17 -17 13 -9 -4 8 -4 12 1 8 4 -4 15 -2
23 5 13 10 14 9 7 -3 -6 -11 -5 -12 4 -4 6 6 14 21 16 34 2 13 9 28 14 33 5 5
7 17 4 26 -3 9 3 6 15 -8 17 -21 20 -22 25 -6 9 22 -1 38 -20 31 -9 -4 -11 -2
-7 6 5 7 3 8 -6 3 -9 -6 -11 -4 -5 5 5 9 4 11 -4 6 -6 -4 -20 -2 -29 6 -15 11
-15 11 -5 -3 7 -9 10 -19 6 -23 -4 -4 -13 4 -20 16 -7 13 -13 17 -14 11 -1 -7
-3 -17 -4 -23 -1 -5 -3 -16 -4 -22 -1 -9 -4 -9 -10 1 -6 9 -6 22 0 33 9 17 -4
28 -14 11 -2 -5 -2 -1 0 7 2 10 -2 8 -12 -4 -13 -17 -15 -18 -15 -3 0 9 -3 17
-7 17 -12 0 -35 -16 -34 -24 3 -20 0 -26 -9 -21 -7 4 -7 13 0 24 6 12 5 22 -3
30 -9 10 -5 11 18 6 17 -3 45 -8 64 -11z m-329 2 c0 -3 -4 -8 -10 -11 -5 -3
-10 -1 -10 4 0 6 5 11 10 11 6 0 10 -2 10 -4z m235 -26 c3 -5 1 -10 -4 -10 -6
0 -11 5 -11 10 0 6 2 10 4 10 3 0 8 -4 11 -10z m76 -15 c8 5 13 -7 11 -27 -2
-14 29 -17 35 -2 3 8 12 13 19 10 7 -3 16 -1 19 4 4 6 12 10 18 10 8 0 8 -3
-2 -9 -9 -6 -10 -11 -2 -15 7 -5 6 -14 -4 -30 -8 -12 -13 -25 -10 -27 2 -3 -5
-10 -15 -17 -12 -7 -20 -8 -20 -2 0 5 6 10 13 11 9 0 9 2 -1 6 -6 2 -9 10 -6
15 5 7 2 8 -6 3 -9 -6 -12 -4 -8 7 4 9 0 15 -8 15 -12 0 -12 -3 0 -22 9 -14
11 -27 5 -36 -5 -8 -9 -9 -10 -4 -2 25 -8 44 -18 62 -10 16 -10 15 -8 -7 1
-16 -3 -25 -13 -25 -17 0 -20 -33 -6 -53 10 -15 2 -27 -13 -18 -5 4 -8 16 -6
28 3 11 1 26 -2 32 -13 21 -11 53 3 53 10 0 12 -7 9 -21 -5 -19 -5 -19 5 -3 6
9 8 22 4 29 -4 6 -3 8 4 4 6 -3 13 -3 16 2 2 4 -4 9 -15 9 -10 1 -19 -2 -19
-5 0 -13 -68 -18 -105 -9 -11 3 -21 6 -23 6 -2 1 0 6 3 11 4 6 12 7 18 3 17
-11 30 -11 45 0 7 6 17 6 25 -1 12 -10 40 -2 38 12 -3 23 1 28 10 13 6 -9 14
-15 20 -12z m1899 21 c0 -3 -4 -8 -10 -11 -5 -3 -10 -1 -10 4 0 6 5 11 10 11
6 0 10 -2 10 -4z m-390 -16 c3 -1 9 -2 14 -1 5 1 3 -5 -4 -14 -11 -13 -11 -19
3 -32 15 -15 18 -15 37 2 16 15 20 15 15 3 -5 -12 0 -15 19 -15 14 0 24 3 21
7 -3 4 3 14 12 21 9 8 14 9 10 3 -4 -7 0 -15 8 -18 9 -3 18 1 22 10 5 15 7 15
15 0 5 -9 13 -14 19 -11 11 7 11 3 3 -19 -5 -14 -9 -14 -34 -1 -25 13 -30 13
-40 0 -10 -12 -16 -13 -26 -4 -11 9 -14 8 -14 0 0 -7 -4 -10 -9 -6 -5 3 -13 1
-16 -5 -4 -6 -1 -9 7 -8 7 2 12 -2 11 -9 -2 -7 4 -10 12 -7 8 4 15 2 15 -3 0
-22 -35 -7 -67 28 -18 20 -39 36 -46 35 -20 -3 -38 -17 -32 -26 3 -4 -3 -7
-12 -5 -10 2 -20 4 -22 4 -2 1 4 10 14 21 14 15 15 23 6 33 -6 8 -9 16 -6 19
5 4 53 3 65 -2z m234 -24 c-3 -8 -1 -17 5 -20 6 -4 8 -13 5 -20 -3 -8 4 -21
16 -29 l22 -15 -21 -7 c-12 -3 -18 -11 -15 -17 4 -7 9 -6 14 3 7 10 12 10 23
1 7 -7 18 -8 22 -4 5 4 5 1 1 -6 -4 -7 -3 -19 3 -26 8 -9 5 -18 -12 -33 -32
-29 -48 -37 -45 -22 2 7 -2 13 -9 14 -19 0 -25 12 -8 19 9 3 18 -1 21 -9 4 -8
11 -15 17 -15 8 0 7 4 -1 12 -9 9 -9 15 1 27 9 12 9 13 0 7 -8 -4 -12 -2 -10
6 2 7 2 9 -1 5 -2 -4 -15 7 -28 24 -25 35 -29 43 -16 35 5 -3 9 1 9 8 0 8 -6
12 -13 9 -8 -3 -11 -16 -9 -34 3 -28 -4 -37 -18 -22 -4 3 -2 12 3 18 8 9 6 14
-4 18 -11 4 -13 1 -9 -11 5 -14 3 -15 -7 -5 -8 7 -15 20 -16 28 -2 11 2 12 16
5 14 -8 21 -4 35 16 9 14 17 34 18 44 1 10 5 17 9 14 4 -3 5 -11 2 -18z
m-1594 -6 c0 -5 -2 -10 -4 -10 -3 0 -8 5 -11 10 -3 6 -1 10 4 10 6 0 11 -4 11
-10z m-292 -13 c6 0 12 -3 12 -7 0 -3 17 -6 37 -6 23 1 38 -4 41 -13 3 -10 0
-12 -11 -8 -9 3 -19 2 -22 -3 -4 -6 -11 -10 -17 -10 -7 0 -7 4 1 13 8 10 7 14
-4 14 -8 0 -11 -5 -8 -11 4 -6 -1 -5 -11 3 -15 12 -19 12 -33 -2 -21 -21 -11
-32 16 -18 13 7 22 8 26 1 5 -9 -7 -14 -27 -12 -3 1 -9 -5 -12 -13 -3 -10 0
-12 12 -8 15 6 15 4 4 -9 -7 -9 -22 -15 -34 -13 -15 3 -17 1 -9 -8 8 -11 9
-36 1 -57 -1 -3 -2 -9 -1 -13 1 -4 -7 -4 -16 1 -16 7 -26 8 -49 3 -4 0 -2 -7
3 -13 6 -7 9 -20 8 -29 -3 -17 29 -20 53 -6 15 10 16 -5 0 -21 -9 -9 -9 -12 0
-12 7 0 12 -4 12 -10 0 -18 -18 -11 -25 10 -5 16 -10 18 -25 10 -14 -7 -20 -6
-25 8 -21 49 -5 92 30 79 20 -8 29 11 15 28 -7 8 -9 15 -5 15 4 0 2 6 -4 14
-9 11 -6 13 13 11 28 -3 41 18 21 35 -9 8 -15 8 -20 0 -10 -16 -25 -2 -18 17
4 11 3 14 -5 9 -21 -13 -13 5 11 25 12 10 29 16 37 13 8 -4 21 -7 28 -7z
m-169 -20 c0 -9 -2 -8 -6 1 -2 6 -10 9 -15 6 -7 -4 -8 -2 -4 5 9 13 26 5 25
-12z m1966 -27 c-2 -4 9 -20 25 -35 16 -15 28 -31 26 -34 -2 -3 7 -7 21 -8 18
-1 22 2 13 7 -12 7 -24 40 -15 40 2 0 14 -15 26 -32 12 -18 19 -30 14 -26 -4
4 -16 3 -27 -3 -15 -8 -17 -13 -8 -25 7 -7 16 -11 21 -8 5 3 6 -2 3 -10 -4
-11 1 -14 18 -12 13 1 29 5 35 9 7 4 10 1 9 -9 -1 -8 -8 -19 -15 -23 -7 -5
-12 -14 -11 -22 4 -25 0 -39 -10 -39 -13 0 -8 62 5 73 6 5 1 6 -11 2 -13 -3
-26 1 -34 10 -7 8 -16 13 -20 10 -4 -3 -11 2 -14 11 -3 8 -2 13 2 10 5 -3 9 1
9 9 0 8 -4 12 -8 9 -4 -2 -12 3 -17 12 -5 9 -13 15 -18 14 -5 -1 -10 4 -12 12
-3 10 -2 10 6 -1 7 -9 12 -10 16 -2 6 10 -6 15 -26 12 -8 -1 -12 15 -9 32 0 4
-4 7 -10 7 -6 0 -9 -9 -6 -19 3 -14 1 -18 -9 -14 -8 3 -11 10 -7 16 3 5 -3 17
-13 25 -15 12 -15 13 -2 9 9 -3 22 1 29 9 9 12 14 12 20 2 4 -6 6 -15 4 -18z
m-1785 16 c0 -2 -7 -7 -16 -10 -8 -3 -12 -2 -9 4 6 10 25 14 25 6z m-175 -16
c3 -5 2 -10 -4 -10 -5 0 -13 5 -16 10 -3 6 -2 10 4 10 5 0 13 -4 16 -10z m261
-35 c-3 -13 1 -29 9 -35 17 -14 53 -21 59 -11 9 14 61 6 62 -10 0 -7 2 -16 3
-19 2 -3 4 -19 5 -35 3 -46 12 -53 55 -50 35 3 41 0 51 -26 7 -16 17 -29 22
-29 5 0 6 6 2 13 -6 8 -3 8 9 -1 9 -8 22 -10 29 -6 18 11 39 14 33 5 -2 -5 1
-15 8 -24 11 -15 14 -15 37 3 15 12 18 18 8 14 -10 -3 -18 -2 -18 4 0 6 6 9
13 8 16 -2 55 -25 43 -26 -11 0 14 -30 26 -30 5 0 6 6 2 13 -5 7 -1 6 10 -2
17 -14 17 -15 0 -28 -10 -7 -23 -13 -28 -13 -6 0 -5 4 3 9 7 5 9 11 4 14 -5 3
-14 -3 -21 -13 -10 -17 -8 -18 20 -14 29 3 30 2 16 -12 -12 -12 -20 -14 -36
-5 -11 6 -28 8 -36 5 -9 -4 -23 0 -32 7 -9 7 -28 13 -42 14 -17 0 -26 6 -24
14 1 7 -2 10 -9 5 -7 -4 -10 -2 -7 7 3 8 11 13 17 11 16 -3 14 3 -6 19 -14 12
-16 12 -8 0 5 -10 4 -12 -4 -7 -19 12 -61 17 -61 7 0 -5 5 -13 12 -17 7 -5 8
-2 3 7 -6 11 -5 12 5 2 11 -10 11 -15 0 -27 -17 -21 -26 -13 -25 21 0 22 5 28
20 26 19 -1 19 -1 3 11 -20 15 -24 31 -5 20 6 -4 8 -3 4 1 -17 19 -34 13 -31
-11 3 -27 -3 -29 -28 -10 -21 15 -14 27 10 19 10 -4 14 -3 11 1 -4 4 -16 9
-28 11 -15 3 -19 0 -14 -8 4 -8 1 -7 -9 1 -9 8 -15 19 -12 27 3 7 1 16 -5 19
-6 4 -8 13 -5 21 4 9 -1 18 -11 21 -13 5 -14 9 -3 15 7 5 9 9 3 10 -5 0 -18 2
-28 4 -18 3 -18 3 -1 -16 10 -11 12 -19 6 -19 -7 0 -17 9 -24 19 -11 18 -13
18 -25 3 -12 -16 -14 -16 -28 2 -8 10 -12 23 -8 28 3 6 -4 5 -15 -1 -14 -7
-23 -8 -27 -1 -6 9 8 14 28 11 4 -1 0 11 -10 26 -22 36 -28 42 -20 21 4 -12 2
-15 -9 -11 -18 7 -18 13 3 28 26 19 54 1 49 -30z m-294 -1 c-9 -16 -10 -14 -9
8 1 15 6 23 11 18 4 -4 4 -16 -2 -26z m243 -16 c16 8 27 -1 12 -9 -14 -8 -16
-14 -7 -24 8 -9 8 -20 2 -31 -6 -11 -11 -13 -16 -5 -4 6 -2 11 3 11 6 0 11 5
11 12 0 9 -3 9 -12 0 -17 -17 -33 -15 -18 3 7 8 9 15 4 15 -5 0 -3 4 4 9 11 7
10 9 -3 14 -9 4 -13 3 -10 -2 3 -5 1 -12 -5 -16 -6 -4 -7 -11 -4 -17 5 -7 2
-8 -6 -3 -9 5 -11 4 -6 -3 5 -8 1 -10 -10 -5 -12 4 -14 8 -6 11 10 3 10 7 0
20 -7 10 -8 14 -3 9 11 -9 46 23 39 37 -3 6 2 2 11 -9 9 -11 18 -19 20 -17z
m1735 -2 c0 5 7 -2 16 -15 12 -17 13 -26 5 -34 -10 -10 -16 0 -13 25 1 3 -5 9
-13 12 -13 5 -13 2 0 -24 9 -18 11 -31 5 -35 -9 -6 -14 8 -11 28 0 4 -4 7 -10
7 -5 0 -8 4 -5 8 2 4 1 14 -3 21 -6 9 -11 10 -15 2 -4 -6 -2 -11 4 -11 6 0 8
-5 5 -10 -4 -7 -12 -7 -25 0 -16 9 -18 7 -15 -10 2 -11 -1 -20 -7 -20 -5 0 -8
8 -4 18 5 16 5 16 -6 0 -11 -15 -13 -15 -24 0 -11 15 -12 15 -11 -3 1 -13 -4
-20 -14 -19 -9 1 -16 -4 -16 -11 0 -7 7 -11 16 -8 10 2 8 -1 -4 -9 -11 -7 -21
-20 -23 -28 -2 -11 1 -11 11 3 8 9 18 17 22 17 4 0 2 -7 -5 -15 -10 -12 -10
-15 1 -15 12 0 12 -2 0 -9 -19 -12 -54 -2 -42 13 7 9 3 12 -14 12 -22 0 -23
-2 -10 -16 22 -24 18 -36 -4 -16 -14 13 -21 14 -27 5 -4 -7 -3 -10 4 -5 6 4 9
-3 8 -18 -2 -19 1 -23 15 -21 21 4 23 -3 9 -25 -6 -10 -10 -11 -10 -2 0 6 -4
12 -10 12 -5 0 -9 -5 -7 -11 1 -6 -4 -14 -12 -17 -8 -3 -11 0 -7 7 5 7 1 9 -8
5 -9 -3 -16 -1 -16 5 0 6 3 10 8 10 27 -5 32 2 17 25 -11 16 -13 26 -5 31 6 3
7 11 4 17 -4 6 -2 8 3 5 6 -4 13 0 16 8 4 8 15 12 26 10 13 -2 25 3 31 16 6
10 8 19 4 19 -3 0 -2 6 5 13 7 9 7 17 0 24 -7 7 -5 14 6 23 14 12 18 12 25 0
13 -21 39 -20 51 1 5 11 14 17 20 14 5 -4 9 -1 9 5 0 6 10 4 25 -6 14 -9 25
-13 25 -8z m266 -8 c5 -7 3 -8 -6 -3 -10 6 -12 4 -7 -9 4 -10 3 -15 -3 -11
-13 8 -13 35 -1 35 6 0 13 -5 17 -12z m-1946 -50 c14 -18 20 -20 33 -10 11 10
17 9 27 -3 8 -10 20 -13 33 -9 15 5 19 3 14 -10 -3 -8 -2 -18 4 -21 5 -4 8
-12 7 -19 -3 -13 37 -68 44 -60 3 2 11 -2 18 -11 11 -13 8 -15 -16 -13 -16 1
-32 7 -36 12 -4 6 -20 11 -35 11 -33 1 -53 11 -53 28 0 7 4 6 11 -3 8 -12 9
-10 4 7 -5 17 -2 21 12 18 10 -2 20 -4 23 -4 3 -1 -1 -5 -8 -10 -10 -6 -10
-10 1 -20 11 -9 17 -7 28 6 13 16 12 17 -3 4 -12 -9 -18 -10 -18 -2 0 6 6 11
13 12 9 0 9 2 -1 6 -10 4 -10 8 -1 20 10 11 10 14 -2 11 -8 -2 -13 3 -11 10 1
6 -3 12 -9 12 -6 0 -8 -8 -5 -17 5 -14 2 -13 -11 3 -12 15 -27 21 -45 19 -15
-2 -30 1 -33 6 -4 5 -14 5 -27 -2 -12 -6 -23 -7 -27 -2 -3 5 -14 1 -23 -9 -10
-10 -15 -18 -12 -18 4 0 0 -8 -7 -17 -13 -16 -12 -17 4 -4 18 15 24 2 6 -16
-8 -8 -7 -13 2 -18 8 -6 10 -4 4 5 -5 9 -4 11 4 6 12 -8 6 -26 -9 -26 -17 0
-32 40 -20 54 8 10 7 15 -4 19 -8 3 -17 3 -20 -1 -11 -11 -36 -11 -43 0 -3 7
-1 8 5 4 18 -11 14 5 -4 19 -15 11 -15 12 0 12 9 0 16 -5 16 -10 0 -6 3 -7 6
-4 4 3 15 2 26 -4 18 -9 18 -8 8 10 -12 24 -13 23 18 26 12 1 22 -2 22 -7 0
-5 4 -7 9 -3 5 3 12 1 16 -4 6 -11 35 -4 33 7 -1 15 2 32 8 32 3 0 14 -10 24
-22z m1627 7 c-4 -8 -2 -17 3 -20 16 -10 11 -21 -10 -21 -11 0 -20 5 -20 10 0
5 -3 6 -6 3 -4 -4 -1 -13 6 -22 7 -8 8 -15 2 -15 -13 0 -33 25 -26 32 3 3 1 8
-3 11 -5 3 -9 -5 -9 -18 0 -13 4 -21 9 -18 5 3 4 -4 -2 -15 -9 -17 -8 -23 6
-31 10 -5 15 -13 11 -17 -4 -4 -15 -1 -24 7 -18 15 -21 14 -41 -3 -9 -7 -13
-7 -13 2 0 8 -3 11 -6 8 -3 -4 0 -17 7 -30 7 -12 14 -31 16 -42 3 -16 1 -17
-12 -6 -11 9 -19 10 -27 2 -6 -6 -17 -8 -25 -5 -11 5 -14 1 -9 -13 5 -16 1
-19 -27 -19 -17 0 -37 3 -43 7 -7 4 -17 1 -24 -7 -13 -15 -30 -12 -30 6 0 6 5
7 12 3 7 -4 8 -3 4 4 -5 8 -2 10 8 6 9 -4 16 -1 16 6 0 10 3 10 15 0 20 -17
30 -7 16 17 -6 10 -11 13 -11 7 0 -6 -7 -11 -15 -11 -9 0 -14 6 -11 12 2 6 -2
12 -9 12 -10 0 -11 -5 -4 -18 7 -15 6 -17 -6 -13 -8 4 -15 1 -15 -6 0 -6 -5
-8 -10 -5 -6 4 -8 10 -5 15 3 5 -3 13 -12 19 -16 9 -16 12 -3 22 13 9 13 10 0
6 -8 -2 -14 -13 -12 -23 2 -10 4 -24 4 -31 1 -7 6 -11 11 -10 14 3 18 -16 7
-33 -7 -12 -12 -12 -22 -2 -9 9 -8 12 7 12 18 0 18 1 2 13 -24 17 -31 62 -12
77 17 14 36 5 28 -15 -7 -20 11 -19 27 0 12 14 15 14 31 -1 11 -10 19 -12 19
-6 0 7 9 3 20 -8 21 -21 32 -24 44 -12 8 7 13 8 41 11 8 0 15 6 15 12 0 5 -4
8 -8 5 -4 -2 -8 7 -7 22 0 23 4 27 28 26 15 -1 27 2 28 5 1 3 2 24 3 45 1 29
6 40 18 42 10 1 20 -2 24 -7 10 -17 23 -9 19 11 -2 11 1 20 7 20 5 0 8 -7 5
-15z m23 -11 c-1 -4 4 -11 12 -15 11 -8 11 -10 0 -18 -11 -7 -10 -9 3 -14 9
-4 14 -3 10 2 -7 12 44 73 55 66 5 -3 7 -12 4 -19 -5 -12 11 -30 26 -31 3 0
14 -7 25 -15 20 -15 34 -47 15 -35 -5 3 -10 1 -10 -4 0 -8 -7 -7 -19 1 -23 14
-18 30 6 21 15 -6 16 -5 3 9 -9 9 -17 12 -19 6 -2 -6 -7 -4 -12 3 -8 12 -11
11 -19 -1 -5 -8 -10 -12 -10 -8 0 3 -3 15 -6 25 -5 15 -4 15 5 3 7 -9 11 -10
11 -3 0 16 -13 23 -25 15 -14 -10 -18 -35 -5 -27 5 3 10 3 10 -2 0 -13 -47
-31 -74 -28 -14 2 -24 -1 -21 -5 3 -5 13 -6 23 -3 9 3 14 2 9 -2 -4 -5 1 -18
10 -29 17 -20 17 -20 1 -7 -18 14 -20 12 -22 -24 -1 -22 -27 -28 -34 -7 -2 8
2 10 14 5 16 -6 17 -5 4 9 -14 15 -16 15 -24 -3 -12 -25 -20 -24 -34 4 l-11
22 2 -24 c1 -14 -4 -26 -13 -28 -12 -4 -12 -3 -2 5 11 7 10 10 -3 16 -9 3 -15
11 -13 18 6 17 38 19 45 2 7 -19 19 -18 27 3 5 11 1 22 -10 30 -11 8 -13 13
-5 13 7 0 10 4 7 9 -3 5 2 8 12 7 9 0 16 5 15 12 -2 6 2 12 7 12 6 0 10 -4 10
-10 0 -5 4 -10 8 -10 11 0 13 38 2 45 -5 3 -6 13 -3 22 6 16 17 4 13 -13z
m-1940 -14 c0 -5 -5 -10 -11 -10 -5 0 -7 5 -4 10 3 6 8 10 11 10 2 0 4 -4 4
-10z m285 -61 c-3 -10 -1 -20 5 -24 5 -3 10 -1 10 5 0 6 4 9 9 6 11 -7 23 22
15 36 -3 5 -13 7 -21 4 -8 -3 -11 -2 -8 3 9 16 42 8 55 -12 6 -11 7 -16 1 -13
-12 8 -34 -30 -26 -45 7 -11 -12 -39 -26 -39 -5 0 -9 5 -9 10 0 6 8 10 18 10
15 1 14 2 -3 12 -11 7 -20 10 -21 7 0 -2 -8 2 -17 10 -12 10 -17 10 -17 1 0
-6 -12 2 -26 19 -23 28 -26 59 -3 46 5 -4 17 -2 26 4 22 12 46 -14 38 -40z
m1402 44 c-4 -3 -2 -12 4 -19 18 -22 -8 -24 -27 -2 -11 12 -14 18 -7 15 6 -4
14 -3 18 3 3 5 9 10 12 10 4 0 3 -3 0 -7z m-1367 -32 c0 -5 -7 -11 -14 -14
-10 -4 -13 -1 -9 9 6 15 23 19 23 5z m1715 -1 c-6 -9 34 -36 48 -32 10 3 9
-16 -2 -23 -6 -3 -14 3 -20 12 -9 17 -11 17 -26 -2 -10 -13 -14 -15 -13 -5 2
9 -4 14 -14 14 -10 -1 -16 2 -13 6 3 5 0 12 -6 16 -8 4 -8 8 0 13 16 10 52 11
46 1z m140 -55 c1 -19 -2 -35 -6 -35 -12 0 -20 18 -11 24 11 6 9 36 -2 56 -7
12 -6 13 5 3 7 -7 14 -29 14 -48z m-2121 26 c3 -5 -2 -15 -12 -22 -15 -12 -16
-12 -5 2 7 9 10 19 6 22 -3 4 -4 7 0 7 3 0 8 -4 11 -9z m1714 -16 c-3 -3 -9 2
-12 12 -6 14 -5 15 5 6 7 -7 10 -15 7 -18z m-394 -1 c3 -8 2 -12 -4 -9 -6 3
-10 10 -10 16 0 14 7 11 14 -7z m-359 -14 c-6 -10 42 -35 59 -31 5 1 3 -5 -4
-14 -15 -18 -5 -34 12 -17 8 8 16 7 32 -3 14 -10 26 -11 36 -5 8 5 11 10 7 10
-4 0 -3 8 2 18 10 18 74 23 100 8 7 -5 15 -5 18 -2 3 3 12 1 20 -5 10 -9 18
-8 31 3 19 16 39 18 50 3 4 -5 12 -11 17 -12 6 -1 18 -4 27 -8 16 -6 42 24 43
50 0 13 81 13 83 0 0 -5 3 -23 6 -40 3 -16 3 -24 0 -17 -5 10 -9 10 -22 0 -9
-7 -13 -8 -10 -3 3 6 0 16 -8 23 -9 8 -14 9 -14 2 0 -6 -5 -8 -10 -5 -6 4 -7
13 -1 24 7 13 6 18 -4 18 -7 0 -11 -6 -8 -14 3 -7 0 -13 -5 -13 -6 0 -10 -9
-9 -19 1 -15 4 -17 14 -9 10 8 13 7 13 -3 0 -11 2 -11 10 1 6 9 10 10 10 3 0
-19 -35 -34 -47 -22 -8 8 -13 5 -18 -10 -6 -21 -25 -29 -25 -11 0 6 5 10 11
10 8 0 8 5 -1 15 -7 8 -16 12 -21 9 -5 -3 -9 0 -9 6 0 6 -5 8 -11 4 -8 -4 -7
-9 2 -15 7 -4 17 -5 21 -3 15 10 8 -14 -12 -37 -10 -13 -19 -19 -20 -12 0 6 5
15 11 18 18 12 -20 44 -49 41 -45 -3 -56 -15 -36 -37 9 -11 15 -22 11 -25 -3
-3 -12 3 -19 15 -7 12 -18 21 -25 21 -7 0 -13 5 -13 11 0 5 4 8 9 5 5 -3 14 1
20 8 14 16 -3 17 -28 2 -11 -7 -13 -5 -9 5 5 12 -3 15 -37 14 -24 0 -47 -4
-52 -9 -4 -5 -3 -6 5 -2 6 4 12 2 12 -3 0 -6 -5 -11 -11 -11 -5 0 -7 -4 -4
-10 3 -5 0 -7 -9 -4 -10 4 -22 -7 -36 -33 -12 -21 -19 -30 -16 -20 3 10 0 20
-9 23 -8 4 -15 12 -15 20 0 8 -5 14 -11 14 -5 0 -8 -4 -4 -9 3 -5 0 -13 -6
-17 -7 -4 -9 -3 -6 3 7 11 -22 28 -31 18 -3 -3 0 -5 7 -5 7 0 9 -5 5 -11 -4
-8 -9 -7 -15 2 -4 8 -3 19 3 26 13 16 13 15 -39 17 -24 1 -43 -3 -43 -9 0 -5
-4 -4 -9 4 -6 9 -11 10 -15 3 -9 -15 -33 -5 -41 16 -3 9 -3 13 1 9 4 -3 19 2
34 13 28 20 28 20 54 -1 14 -11 27 -18 27 -15 1 3 2 9 3 14 2 11 17 32 22 32
3 0 2 -5 -1 -10z m-1055 -14 c0 -3 -4 -8 -10 -11 -5 -3 -10 -1 -10 4 0 6 5 11
10 11 6 0 10 -2 10 -4z m240 -6 c0 -5 -4 -10 -9 -10 -6 0 -13 5 -16 10 -3 6 1
10 9 10 9 0 16 -4 16 -10z m360 -15 c0 -12 -19 -12 -23 0 -4 9 -1 12 9 8 7 -3
14 -7 14 -8z m-145 -25 c3 -5 1 -10 -4 -10 -6 0 -11 5 -11 10 0 6 2 10 4 10 3
0 8 -4 11 -10z m781 -15 c0 -14 -5 -25 -9 -25 -5 0 -5 -6 -1 -12 5 -10 4 -10
-5 -2 -9 8 -9 17 0 37 15 33 17 34 15 2z m21 12 c-3 -8 1 -14 8 -14 7 0 11 7
8 16 -4 14 -3 14 5 1 6 -8 9 -17 6 -21 -2 -4 5 -11 17 -14 18 -6 19 -9 7 -21
-8 -8 -23 -16 -34 -19 -10 -2 -29 -7 -41 -11 -15 -4 -23 -2 -23 6 0 7 6 10 13
7 8 -3 14 0 15 6 1 11 8 52 11 70 0 4 4 7 7 7 3 0 4 -6 1 -13z m588 3 c5 -8
11 -7 21 1 8 6 17 10 20 7 2 -3 -11 -17 -30 -31 -35 -27 -39 -26 -61 12 -5 9
-4 12 3 7 6 -3 13 -2 17 4 8 13 22 13 30 0z m-1205 -42 c0 -5 -7 -8 -16 -8 -8
0 -12 5 -9 10 6 9 -8 14 -27 11 -10 -1 -10 13 -2 22 7 7 53 -24 54 -35z m560
2 c0 -5 -4 -10 -10 -10 -5 0 -10 5 -10 10 0 6 5 10 10 10 6 0 10 -4 10 -10z"/>
<path d="M3561 866 c-10 -11 -9 -14 1 -12 14 2 23 15 15 22 -2 2 -10 -2 -16
-10z"/>
<path d="M1494 868 c-4 -6 -3 -9 2 -6 5 3 16 -1 24 -10 13 -14 12 -15 -3 -9
-9 3 -19 2 -22 -3 -4 -6 -1 -11 4 -11 26 -3 30 -4 36 -11 4 -3 -1 -5 -12 -4
-26 5 -36 -4 -22 -20 6 -8 9 -17 6 -21 -4 -3 -2 -12 4 -19 9 -10 7 -15 -5 -20
-9 -3 -16 -10 -16 -16 0 -5 4 -6 10 -3 13 8 6 -53 -8 -67 -8 -8 -8 -17 -1 -30
5 -10 7 -23 4 -28 -3 -5 -1 -11 4 -14 24 -15 57 71 39 99 -4 6 -5 23 -4 38 2
15 -1 30 -6 33 -5 3 -4 12 3 20 6 7 16 11 23 7 7 -4 7 -1 -1 8 -7 9 -11 24 -9
35 2 11 -4 29 -14 42 -21 25 -26 27 -36 10z m40 -74 c3 -7 -3 -18 -12 -25 -14
-11 -15 -11 -5 1 10 10 9 16 -4 25 -14 11 -14 12 0 12 9 0 18 -6 21 -13z m2
-148 c0 -13 -7 -34 -16 -46 -16 -21 -17 -21 -15 -2 0 11 7 27 14 36 16 19 1
22 -18 4 -8 -7 -6 0 4 15 19 30 29 28 31 -7z"/>
<path d="M1473 521 c1 -15 4 -17 14 -9 7 5 10 14 7 19 -10 16 -23 9 -21 -10z"/>
<path d="M1426 475 c-3 -8 2 -19 12 -24 9 -6 12 -11 5 -11 -7 0 -17 -10 -24
-21 -8 -15 -8 -19 0 -15 6 4 11 2 11 -3 0 -6 -4 -11 -10 -11 -5 0 -14 -10 -21
-21 -9 -17 -8 -25 6 -38 9 -9 15 -11 14 -6 -2 6 3 21 11 35 18 32 21 50 8 50
-7 0 -6 5 1 14 7 8 22 13 33 11 20 -4 20 -3 3 15 -10 11 -24 16 -33 13 -12 -4
-12 -1 3 10 17 14 17 16 4 17 -9 0 -19 -7 -23 -15z m9 -95 c-3 -5 -12 -10 -18
-10 -7 0 -6 4 3 10 19 12 23 12 15 0z"/>
<path d="M1586 812 c-3 -6 1 -15 8 -21 8 -7 17 -8 20 -3 3 6 -1 15 -8 21 -8 7
-17 8 -20 3z"/>
<path d="M3545 809 c-4 -6 -5 -12 -2 -15 2 -3 7 2 10 11 7 17 1 20 -8 4z"/>
<path d="M1927 785 c12 -8 21 -24 20 -35 -1 -20 -8 -24 -39 -21 -15 2 -24 -12
-15 -22 1 -2 -6 -15 -16 -30 -17 -26 -17 -27 13 -54 28 -25 29 -27 13 -45 -9
-10 -13 -21 -10 -25 4 -3 7 -1 7 5 0 7 8 5 20 -6 12 -9 28 -17 38 -17 9 -1 27
-6 40 -13 12 -7 22 -10 22 -7 0 3 10 0 23 -7 12 -7 47 -13 77 -13 40 0 54 -4
52 -13 -1 -8 2 -11 7 -8 13 8 62 -34 55 -47 -4 -7 1 -4 11 5 17 16 19 16 31 0
12 -16 12 -16 11 2 -2 16 5 20 36 21 42 2 67 18 46 30 -8 6 -10 4 -4 -6 7 -11
5 -11 -10 1 -17 13 -18 13 -13 -1 4 -9 1 -16 -6 -16 -16 0 -13 40 2 45 7 2 9
8 6 13 -3 6 -12 2 -21 -8 -8 -10 -11 -12 -7 -4 4 9 3 12 -4 7 -6 -4 -9 -13 -6
-20 3 -8 0 -17 -6 -21 -6 -3 -10 -3 -9 2 3 19 -2 33 -12 33 -5 0 -8 -4 -5 -9
3 -5 -2 -15 -11 -22 -9 -8 -14 -9 -10 -2 8 12 -10 12 -31 -1 -8 -4 -11 -3 -10
5 2 6 -3 14 -11 17 -9 3 -11 0 -6 -8 6 -9 4 -11 -5 -5 -10 6 -9 11 6 22 17 13
16 14 -16 8 -22 -3 -30 -2 -22 3 11 7 10 10 -3 15 -11 5 -14 3 -10 -6 4 -6 0
-4 -8 6 -9 10 -18 14 -21 8 -3 -5 -1 -11 6 -13 9 -3 9 -6 0 -12 -7 -4 -12 -2
-12 5 0 7 -7 4 -15 -7 -15 -19 -15 -19 -8 0 5 16 3 18 -11 13 -12 -5 -15 -3
-10 6 6 9 4 9 -7 1 -16 -13 -51 -15 -43 -2 3 5 10 6 15 2 5 -3 16 0 25 6 11
10 12 16 3 26 -6 8 -16 14 -22 14 -6 0 -3 -6 8 -13 14 -11 15 -16 5 -22 -9 -5
-11 -4 -6 3 4 8 2 10 -8 6 -19 -7 -15 24 4 36 8 5 11 13 6 17 -10 10 -48 -36
-40 -48 3 -5 0 -9 -6 -9 -7 0 -9 7 -6 16 4 10 2 13 -7 9 -6 -4 -3 1 8 11 20
16 20 17 0 10 -11 -4 -16 -4 -13 0 11 10 -20 36 -33 28 -8 -5 -9 -3 -4 6 6 9
4 11 -5 5 -9 -6 -11 -4 -5 5 6 9 4 11 -5 5 -8 -5 -11 -4 -7 2 8 12 -17 36 -26
26 -4 -3 -7 -1 -7 6 0 7 7 11 15 8 8 -4 17 -2 20 3 6 10 -9 15 -30 10 -5 -1
-7 2 -2 6 10 10 47 13 41 3 -5 -9 44 -5 53 5 3 3 -2 16 -13 28 l-19 23 24 -20
c14 -11 21 -14 16 -6 -6 10 -4 12 5 6 8 -5 11 -4 6 3 -8 14 33 7 48 -8 8 -8 6
-9 -5 -5 -21 8 -35 -13 -19 -28 9 -9 14 -8 24 5 7 10 17 14 21 10 5 -4 5 -1 1
6 -11 18 5 15 21 -5 14 -17 14 -17 9 -1 -3 10 0 20 6 24 6 4 8 3 5 -3 -4 -6 1
-17 10 -24 15 -12 16 -12 10 3 -3 10 -1 20 5 24 7 5 8 2 3 -5 -6 -10 -3 -11
14 -2 12 7 21 8 20 4 -3 -20 2 -34 11 -28 6 4 8 12 4 18 -3 7 6 0 19 -15 25
-27 47 -27 25 -1 -9 11 -8 13 2 11 7 -2 14 2 16 7 2 6 -4 11 -15 11 -11 0 -17
-4 -15 -8 8 -13 -9 -9 -30 7 -10 8 -23 12 -29 8 -5 -3 -13 1 -18 8 -6 10 -9
11 -9 2 0 -7 -5 -13 -11 -13 -5 0 -7 6 -3 13 4 6 -1 5 -12 -4 -20 -17 -49 -15
-38 3 4 6 2 8 -4 4 -6 -3 -13 -2 -16 3 -7 10 -61 9 -72 -1 -10 -10 -35 3 -27
15 3 5 1 7 -5 3 -6 -3 -13 -2 -17 4 -3 5 -11 10 -18 10 -6 0 -2 -7 10 -15z
m134 -32 c13 -17 13 -17 -6 -3 -11 8 -22 16 -24 17 -2 2 0 3 6 3 6 0 17 -8 24
-17z m-87 -34 c-10 -16 -23 -9 -21 10 1 15 4 17 14 9 7 -5 10 -14 7 -19z m76
1 c0 -5 -5 -10 -11 -10 -5 0 -7 5 -4 10 3 6 8 10 11 10 2 0 4 -4 4 -10z m-140
-62 c-7 -9 31 -48 41 -42 4 2 13 -5 19 -16 6 -11 8 -20 5 -20 -3 0 -1 -9 5
-21 8 -13 17 -18 28 -14 13 5 14 3 5 -6 -7 -7 -17 -8 -25 -3 -7 5 -20 9 -29 9
-26 0 -51 26 -39 40 7 8 1 20 -20 40 -31 29 -32 45 -2 41 9 -2 15 -5 12 -8z
m170 -144 c0 -8 -19 -13 -24 -6 -3 5 1 9 9 9 8 0 15 -2 15 -3z m64 -2 c3 -5
-1 -9 -9 -9 -8 0 -12 4 -9 9 3 4 7 8 9 8 2 0 6 -4 9 -8z m142 -39 c-2 -10 -8
-18 -14 -18 -6 0 -14 -3 -18 -7 -10 -10 -35 12 -28 24 3 5 11 5 19 -2 9 -7 16
-6 25 5 16 19 19 19 16 -2z"/>
<path d="M1911 624 c21 -22 27 -34 19 -39 -8 -5 -9 -10 -1 -18 14 -14 41 -18
41 -5 0 6 -8 7 -17 4 -15 -5 -15 -4 1 9 11 8 14 15 7 15 -7 0 -9 5 -5 13 4 6
3 9 -1 4 -10 -8 -57 32 -50 43 2 4 -3 7 -11 7 -10 0 -4 -11 17 -33z"/>
<path d="M3134 788 c-3 -4 -20 -6 -37 -3 -20 3 -27 2 -19 -3 11 -8 11 -10 -2
-15 -8 -3 -25 -4 -36 -2 -17 3 -19 1 -11 -9 6 -7 8 -15 5 -18 -2 -3 2 -8 10
-11 10 -4 13 -1 9 9 -3 7 0 14 7 14 6 0 9 -4 6 -8 -2 -4 -1 -14 3 -21 6 -9 11
-10 15 -2 4 6 2 11 -5 11 -8 0 -5 6 5 13 23 17 62 14 58 -3 -2 -11 1 -10 15 0
15 12 16 12 6 0 -18 -20 -16 -33 5 -26 16 6 16 5 0 -7 -15 -12 -15 -14 0 -25
15 -10 15 -11 -3 -5 l-20 6 20 -17 c11 -10 15 -15 9 -12 -7 3 -10 -4 -8 -19 1
-16 -2 -23 -8 -19 -6 4 -8 3 -5 -2 3 -6 -7 -10 -23 -9 -15 0 -26 4 -23 10 2 5
-3 1 -11 -9 -16 -19 -23 -10 -8 10 4 5 -1 1 -10 -9 -10 -11 -15 -24 -11 -30 3
-6 1 -7 -5 -3 -8 4 -10 2 -6 -7 7 -20 -15 -32 -29 -18 -9 9 -8 11 6 6 19 -8
24 10 5 21 -7 5 -8 3 -3 -5 6 -10 3 -11 -15 -1 -20 11 -21 10 -11 -9 6 -11 19
-25 29 -30 9 -6 12 -11 5 -11 -6 0 -15 4 -18 10 -3 5 -16 15 -28 21 -20 10
-19 8 3 -13 14 -12 21 -20 16 -16 -17 14 -28 9 -22 -9 4 -10 -5 -4 -19 12 -20
22 -25 25 -21 10 5 -17 3 -16 -14 5 -12 15 -18 18 -14 8 4 -11 1 -18 -6 -18
-7 0 -10 -7 -6 -16 4 -10 2 -13 -6 -8 -7 5 -8 3 -3 -6 5 -9 4 -11 -3 -6 -8 5
-10 1 -6 -11 5 -14 4 -15 -4 -4 -5 7 -15 11 -21 7 -7 -4 -9 -1 -5 8 3 9 11 14
16 13 6 -1 12 3 14 8 2 6 -7 11 -20 11 -17 1 -23 -3 -21 -15 1 -9 -2 -21 -7
-28 -6 -7 -4 -14 4 -19 24 -16 39 -12 54 12 9 13 20 22 24 19 4 -3 13 2 20 10
17 20 34 8 18 -13 -11 -15 -11 -15 4 -4 10 8 19 9 22 3 4 -5 16 -8 28 -6 12 3
30 -2 39 -11 10 -9 19 -11 23 -5 4 5 2 12 -4 16 -17 10 -1 24 22 20 19 -4 19
-2 -8 26 l-29 31 23 19 c20 15 28 17 45 7 28 -15 86 -18 95 -4 10 16 11 37 2
31 -11 -7 -27 16 -27 37 0 9 7 20 16 23 8 3 12 3 8 -1 -4 -4 -2 -13 5 -21 9
-11 14 -11 29 3 15 13 22 14 33 5 24 -20 25 2 2 32 -20 25 -24 26 -36 13 -16
-20 -25 -20 -56 1 l-26 17 24 19 c12 10 17 16 10 12 -14 -7 -55 23 -47 35 2 4
-3 7 -11 7 -8 0 -17 -4 -20 -9z m35 -21 c21 -23 21 -25 4 -38 -16 -13 -17 -12
-4 4 7 9 11 18 7 18 -14 3 -26 7 -28 9 -9 6 -50 5 -54 -2 -3 -4 -10 -8 -17 -8
-6 0 -2 6 8 14 11 8 25 12 31 9 7 -2 15 0 19 6 8 14 8 15 34 -12z m51 -82 c0
-2 -6 -2 -13 1 -21 8 -15 -50 7 -75 11 -12 17 -21 15 -22 -23 -6 -81 -3 -86 4
-3 6 -1 7 5 3 10 -6 24 8 29 29 1 6 4 20 7 32 3 13 0 25 -5 28 -18 12 2 25 22
15 10 -6 19 -13 19 -15z m57 19 c-3 -4 2 -14 11 -23 10 -9 12 -12 5 -7 -9 6
-20 3 -31 -8 -27 -24 -36 -6 -10 21 12 13 24 23 26 23 3 0 3 -3 -1 -6z m-191
-176 c10 -13 15 -20 10 -16 -5 4 -15 3 -23 -3 -11 -9 -11 -15 -1 -28 10 -13 9
-13 -8 1 -11 10 -29 16 -40 14 -13 -3 -21 1 -21 10 0 9 4 10 12 4 12 -10 39 3
41 20 3 26 6 26 30 -2z m-142 -19 c-3 -5 -10 -7 -15 -3 -5 3 -7 10 -3 15 3 5
10 7 15 3 5 -3 7 -10 3 -15z m-58 -41 c3 -4 -1 -5 -10 -4 -8 1 -18 5 -22 8 -3
4 1 5 10 4 8 -1 18 -5 22 -8z"/>
<path d="M3183 623 c4 -3 3 -11 -3 -18 -6 -8 -2 -11 15 -11 23 0 23 1 8 18 -9
10 -18 18 -21 18 -3 0 -2 -3 1 -7z"/>
<path d="M3249 673 c-13 -16 -12 -17 4 -4 16 13 21 21 13 21 -2 0 -10 -8 -17
-17z"/>
<path d="M3063 533 c4 -3 1 -13 -6 -22 -11 -14 -10 -14 5 -2 16 12 16 31 1 31
-4 0 -3 -3 0 -7z"/>
<path d="M2866 762 c-3 -5 -25 -8 -50 -7 -38 2 -44 -1 -43 -17 1 -10 6 -16 12
-14 5 2 9 8 8 13 -1 5 4 10 12 10 8 0 12 -4 9 -9 -8 -12 10 -10 24 4 9 9 12 9
12 1 0 -7 9 -10 20 -8 11 2 18 0 15 -5 -3 -5 3 -7 14 -5 13 2 25 -5 36 -21 14
-22 14 -26 -2 -51 -17 -28 -17 -28 3 -10 11 9 23 15 25 12 3 -2 11 5 18 17 11
18 11 20 -4 15 -9 -4 -14 -3 -11 2 3 5 -1 12 -10 15 -8 3 -12 10 -9 16 3 5 1
10 -5 10 -6 0 -8 5 -5 10 11 17 24 11 20 -10 -2 -11 0 -20 6 -20 5 0 9 5 9 12
0 9 3 9 12 0 7 -7 17 -12 22 -12 6 0 -5 13 -24 29 -31 26 -36 27 -47 12 -7 -9
-13 -11 -13 -6 0 6 -5 3 -10 -5 -8 -13 -11 -11 -16 8 -6 22 -19 29 -28 14z"/>
<path d="M2002 722 c-11 -19 -24 -28 -40 -27 -12 1 -27 -4 -33 -11 -15 -18 78
-89 97 -73 16 13 37 2 30 -16 -5 -15 21 -42 31 -31 3 3 1 6 -7 6 -9 0 -10 3
-1 14 9 11 9 15 -1 19 -11 4 -11 6 0 6 12 1 -42 61 -55 61 -3 0 -3 -3 0 -6 9
-10 -12 -44 -26 -43 -9 0 -9 2 1 6 19 7 14 22 -6 18 -10 -2 -25 1 -33 7 -11 8
-11 9 3 4 10 -3 20 -1 23 4 4 6 1 10 -4 10 -6 0 -11 5 -11 12 0 6 3 8 6 5 4
-3 16 -2 28 4 20 9 20 9 3 -4 -11 -9 -14 -18 -8 -21 5 -4 14 2 20 11 6 11 11
13 11 5 0 -7 5 -10 10 -7 6 3 10 1 10 -4 0 -8 6 -7 19 1 11 6 17 19 14 27 -4
14 -3 14 5 1 6 -8 9 -17 6 -21 -6 -10 24 -19 41 -13 8 4 13 9 11 13 -7 11 12
36 21 28 4 -5 1 -12 -7 -17 -11 -7 -7 -9 15 -7 31 2 48 15 38 30 -2 4 -11 3
-18 -3 -10 -8 -16 -7 -24 7 -9 15 -12 16 -20 4 -11 -17 -49 -22 -57 -9 -3 5
-17 2 -31 -7 -23 -15 -27 -15 -41 -1 -13 12 -13 18 -2 30 7 9 10 16 6 16 -3 0
-14 -13 -24 -28z m-48 -53 c-3 -5 -10 -7 -15 -3 -5 3 -7 10 -3 15 3 5 10 7 15
3 5 -3 7 -10 3 -15z m176 17 c0 -3 -4 -8 -10 -11 -5 -3 -10 -1 -10 4 0 6 5 11
10 11 6 0 10 -2 10 -4z m-71 -58 c13 -21 13 -22 -2 -9 -14 11 -20 11 -34 0
-15 -13 -15 -12 -2 9 8 12 16 22 19 22 3 0 11 -10 19 -22z"/>
<path d="M2261 728 c-7 -11 -8 -17 -2 -13 6 3 11 2 11 -2 0 -5 9 -9 21 -10 17
-2 18 1 9 12 -7 8 -17 12 -23 8 -6 -4 -7 -1 -3 6 6 9 13 8 27 -5 13 -12 19
-13 19 -4 0 10 3 10 15 0 12 -10 15 -10 15 1 0 12 2 12 9 1 7 -11 10 -10 15 3
9 25 8 27 -14 15 -11 -6 -26 -8 -32 -4 -25 16 -55 12 -67 -8z"/>
<path d="M2386 728 c-9 -12 -16 -27 -16 -33 0 -5 5 -3 11 5 8 11 9 9 3 -10 -6
-22 -5 -23 9 -11 9 7 14 17 11 22 -3 5 1 6 9 3 8 -3 20 2 27 11 10 12 16 13
27 4 17 -15 28 -5 19 17 -6 14 -9 14 -39 -3 -37 -22 -65 -20 -46 3 6 8 9 14 6
14 -3 0 -13 -10 -21 -22z"/>
<path d="M2543 736 c2 -5 9 -12 17 -14 8 -3 10 0 5 8 -5 9 -4 11 3 6 8 -4 9
-14 4 -24 -5 -9 -7 -28 -5 -42 2 -14 4 -30 5 -37 2 -16 38 -12 38 5 0 7 -4 10
-10 7 -12 -8 -15 22 -8 83 2 14 13 5 13 -10 0 -6 6 -13 13 -16 7 -2 10 2 6 11
-6 17 22 31 32 15 13 -21 11 -67 -3 -73 -19 -7 -38 6 -38 24 0 8 -7 17 -15 19
-13 5 -13 3 -1 -11 9 -11 10 -17 2 -17 -6 0 -3 -8 7 -18 9 -11 21 -17 26 -14
5 3 6 1 3 -5 -3 -5 6 -10 22 -10 20 0 28 4 24 14 -3 7 -10 10 -17 7 -6 -3 -2
2 8 10 13 10 15 16 7 16 -11 0 -11 3 -2 14 14 17 -1 55 -22 58 -44 5 -117 2
-114 -6z"/>
<path d="M2726 727 c-12 -12 -21 -16 -25 -9 -4 6 -7 -11 -8 -39 -1 -48 0 -49
16 -32 16 16 16 19 2 30 -14 10 -14 11 4 10 13 -1 20 4 19 15 -2 18 20 14 47
-9 9 -7 19 -10 22 -6 4 3 7 0 7 -7 0 -7 3 -10 8 -6 7 7 8 11 11 37 0 5 6 7 11
4 6 -3 10 -1 10 4 0 16 -16 13 -30 -4 -7 -8 -18 -15 -24 -14 -7 0 -6 2 2 6 6
2 12 9 12 15 0 6 -6 6 -15 -2 -15 -12 -39 -5 -30 10 11 18 -21 15 -39 -3z"/>
<path d="M3006 729 c18 -20 5 -32 -23 -23 -17 6 -17 6 1 -8 13 -11 16 -17 7
-22 -6 -4 -9 -12 -6 -17 4 -5 1 -10 -4 -10 -36 -4 -50 -16 -48 -39 1 -20 17
-29 17 -9 0 5 5 7 11 3 7 -4 10 -1 7 7 -3 8 -12 13 -19 11 -8 -2 -10 0 -6 4
13 13 38 13 31 1 -3 -7 3 -1 14 13 11 13 18 28 16 32 -3 5 1 11 9 13 7 3 13
19 13 35 0 21 -4 28 -17 27 -17 -1 -17 -3 -3 -18z"/>
<path d="M3099 743 c-1 -2 -2 -6 -3 -10 -4 -24 -18 -33 -37 -23 -10 6 -19 9
-20 8 0 -2 -2 -13 -5 -25 -4 -26 11 -31 20 -8 4 12 11 13 23 7 10 -5 28 -8 40
-7 12 1 20 -2 17 -7 -4 -5 -12 -7 -20 -4 -8 3 -17 -1 -20 -9 -4 -8 -9 -13 -13
-11 -4 3 -13 1 -21 -4 -11 -7 -20 -3 -33 13 -10 12 -16 18 -15 12 4 -18 -30
-72 -56 -89 -15 -9 -27 -12 -27 -6 -2 14 -6 30 -9 33 -1 1 -4 14 -6 29 -2 17
2 27 9 25 7 -1 12 5 12 13 0 8 -6 14 -14 12 -8 -2 -11 3 -8 12 4 11 0 14 -16
10 -11 -2 -24 0 -27 4 -3 5 -13 0 -22 -10 -17 -17 -16 -17 20 -15 27 1 37 -2
37 -13 0 -8 -5 -15 -12 -15 -17 0 -29 -15 -12 -16 8 -1 18 -1 24 1 5 1 1 -8
-9 -19 -10 -11 -23 -18 -30 -15 -7 3 -13 -2 -13 -11 0 -19 7 -19 37 2 14 9 22
13 18 8 -4 -4 -2 -15 5 -23 8 -11 8 -14 0 -9 -6 4 -14 3 -18 -3 -3 -5 -1 -10
6 -10 8 0 8 -4 -1 -15 -7 -9 -19 -14 -27 -11 -8 3 -11 1 -8 -4 8 -13 50 -6 51
8 3 23 4 24 19 12 8 -7 15 -9 15 -5 0 5 10 0 22 -11 19 -15 20 -16 9 -1 -12
15 -9 21 11 18 4 0 5 6 2 14 -5 12 1 14 25 11 25 -3 34 2 56 34 26 38 65 48
73 19 3 -12 2 -12 -6 0 -7 10 -11 10 -17 1 -6 -9 -10 -9 -16 1 -6 10 -9 10 -9
2 0 -7 9 -17 19 -22 22 -12 48 10 36 30 -4 6 -9 25 -12 43 -2 17 -4 36 -5 41
-1 9 -36 16 -39 8z m35 -44 c-5 -8 -44 -8 -44 0 0 2 8 10 17 17 13 9 20 9 25
1 4 -6 5 -14 2 -18z m-83 -67 c8 2 17 8 21 13 5 6 8 6 8 -1 0 -17 -37 -47 -49
-39 -6 3 -11 0 -12 -7 0 -10 -2 -11 -6 0 -4 10 -8 10 -21 0 -15 -12 -16 -11
-3 4 7 10 17 16 21 13 5 -3 11 -1 15 5 3 5 1 10 -4 10 -6 0 -11 5 -11 11 0 8
4 8 14 0 8 -6 20 -10 27 -9z m-76 -61 c-9 -8 -36 -10 -30 -2 2 4 11 8 20 8 8
0 13 -3 10 -6z"/>
<path d="M3040 620 c-9 -6 -10 -10 -3 -10 6 0 15 5 18 10 8 12 4 12 -15 0z"/>
<path d="M2497 718 c-12 -18 -18 -20 -27 -11 -10 9 -20 6 -46 -14 -37 -28 -42
-40 -19 -40 10 0 14 6 10 16 -5 13 -4 14 6 4 18 -18 34 -16 20 1 -9 11 -8 15
5 20 9 3 20 4 25 1 14 -9 50 15 42 28 -4 7 2 5 13 -3 29 -22 30 -24 12 -17
-22 8 -30 -4 -13 -20 11 -10 15 -10 18 0 3 7 4 -3 2 -20 -3 -24 1 -33 11 -33
10 0 12 5 7 18 -5 9 -8 26 -8 37 1 20 -22 55 -35 55 -4 0 -14 -10 -23 -22z"/>
<path d="M2636 721 c-4 -6 -2 -11 3 -11 6 0 11 -5 11 -11 0 -5 -4 -7 -10 -4
-5 3 -10 -3 -10 -14 0 -28 16 -27 23 1 7 26 -7 57 -17 39z"/>
<path d="M2315 699 c-4 -5 -18 -7 -32 -4 -30 5 -46 -2 -37 -17 4 -6 10 -5 16
3 7 10 8 8 4 -7 -5 -14 -2 -21 9 -21 10 0 14 7 10 21 -3 12 -2 15 1 8 5 -10 9
-10 22 0 12 10 14 10 8 1 -4 -8 -2 -13 4 -13 7 0 9 7 5 18 -5 13 -3 14 6 5 14
-14 2 -36 -18 -29 -10 4 -13 1 -8 -13 3 -11 1 -22 -5 -26 -5 -3 -10 -14 -10
-23 0 -12 4 -10 17 8 10 14 17 28 16 32 -2 4 4 5 13 1 8 -3 14 -2 13 3 -1 5
-1 18 0 29 1 16 3 17 11 5 5 -8 6 -17 2 -20 -4 -3 -8 -11 -10 -19 -2 -9 4 -12
18 -8 12 3 18 1 13 -5 -4 -7 -1 -8 8 -4 8 4 6 1 -4 -7 -10 -8 -14 -18 -9 -21
12 -7 36 20 28 32 -3 5 1 9 8 9 8 0 12 -6 9 -14 -4 -9 0 -11 11 -7 9 3 13 11
9 17 -3 5 -1 7 5 4 14 -9 4 -43 -17 -59 -13 -10 -14 -10 -3 2 19 22 14 35 -6
17 -10 -10 -21 -15 -23 -12 -3 2 -10 -5 -17 -15 -7 -11 -8 -20 -3 -20 4 0 8
-10 7 -22 -1 -16 -7 -22 -19 -20 -9 2 -17 -2 -17 -8 0 -6 4 -9 9 -5 5 3 16 -2
25 -11 9 -8 20 -13 25 -9 5 3 12 1 16 -5 8 -13 25 -3 25 13 0 7 -4 6 -10 -3
-9 -13 -10 -13 -10 1 0 8 -5 20 -12 27 -13 13 -20 62 -8 62 3 0 12 -6 19 -12
11 -10 13 -10 7 0 -7 11 6 17 28 13 5 -1 6 4 3 12 -3 8 -1 20 4 28 8 12 12 11
24 -5 14 -19 15 -19 13 7 -2 19 -7 26 -16 22 -8 -3 -20 0 -28 6 -7 6 -27 8
-44 5 -27 -4 -33 0 -46 28 -15 31 -47 45 -59 25z m99 -210 c-3 -5 -10 -7 -15
-3 -5 3 -7 10 -3 15 3 5 10 7 15 3 5 -3 7 -10 3 -15z"/>
<path d="M2740 685 c-8 -9 -8 -15 -2 -15 6 0 12 3 15 8 2 4 2 1 1 -5 -2 -7 1
-13 6 -13 6 0 10 5 10 11 0 5 5 7 11 3 15 -9 -11 -25 -32 -19 -8 3 -24 -5 -36
-18 -18 -22 -28 -24 -92 -22 -63 2 -73 -1 -83 -18 -8 -16 -8 -19 5 -14 8 3 20
0 26 -6 8 -8 11 -8 11 1 0 6 -8 16 -17 21 -10 6 -13 11 -6 11 6 0 15 -5 19
-11 4 -8 9 -7 16 2 7 10 8 8 4 -7 -5 -14 -2 -21 9 -21 11 0 14 7 9 21 -3 12
-2 17 3 11 11 -14 33 -17 33 -5 0 6 5 10 11 10 5 0 8 -4 5 -9 -3 -5 6 -8 20
-8 13 0 22 2 20 5 -11 10 16 31 32 25 15 -6 16 -5 2 13 -14 18 -14 18 3 5 9
-7 17 -10 17 -5 0 5 7 -2 16 -14 8 -12 20 -22 26 -22 6 0 3 9 -7 20 -15 16
-16 23 -6 33 10 9 11 8 6 -8 -6 -18 -6 -18 5 -2 9 14 7 21 -12 37 -28 24 -32
24 -48 5z"/>
<path d="M1780 681 c0 -6 4 -13 10 -16 6 -3 7 1 4 9 -7 18 -14 21 -14 7z"/>
<path d="M2215 681 c-3 -6 -14 -8 -25 -6 -11 2 -25 -2 -32 -8 -7 -7 -31 -13
-53 -14 -29 -2 -36 0 -25 7 9 6 10 10 3 10 -29 0 -22 -31 9 -43 13 -4 16 -2
12 11 -5 15 -4 15 6 2 8 -11 13 -12 16 -3 4 8 11 6 25 -8 24 -24 38 -25 34 -1
-2 9 -4 19 -4 22 -1 3 -5 -2 -11 -10 -5 -8 -12 -11 -16 -8 -3 4 1 14 10 23 9
9 16 11 16 5 0 -7 6 -8 19 0 11 5 28 7 38 3 16 -6 16 -5 4 10 -16 20 -18 20
-26 8z"/>
<path d="M2450 681 c1 -17 22 -36 42 -36 13 0 22 -5 21 -12 -2 -7 2 -13 7 -13
7 0 7 -8 -1 -22 -11 -20 -12 -20 -24 -4 -8 10 -16 13 -19 7 -3 -5 0 -12 6 -14
10 -4 10 -8 -2 -16 -8 -5 -18 -7 -22 -5 -4 3 -8 0 -8 -6 0 -8 7 -9 18 -5 35
14 52 13 61 -2 13 -25 57 -26 58 -1 1 13 -2 17 -10 11 -29 -22 -63 6 -47 38
11 19 5 58 -10 73 -12 12 -70 18 -70 7z m71 -28 c12 -16 12 -17 -2 -5 -9 7
-25 10 -35 6 -16 -5 -16 -4 -4 5 20 15 25 14 41 -6z"/>
<path d="M2852 669 c-8 -12 -9 -19 -1 -19 5 0 7 -4 4 -10 -3 -5 -10 -10 -15
-10 -10 0 -8 19 3 38 5 6 4 12 -2 12 -13 0 -32 -35 -24 -44 3 -3 1 -6 -7 -6
-10 0 -10 -3 0 -15 10 -12 9 -16 -4 -21 -9 -3 -13 -11 -10 -16 4 -6 9 -6 14 2
6 10 12 10 26 0 18 -11 18 -11 -1 -6 -19 6 -19 5 -2 -8 13 -10 15 -15 5 -19
-7 -2 -22 3 -32 12 -18 15 -19 15 -13 -1 4 -12 2 -15 -9 -11 -15 6 -19 23 -5
23 10 0 9 19 -2 37 -10 16 -62 9 -62 -8 0 -8 -8 -14 -17 -14 -9 0 -20 -4 -25
-9 -4 -5 -3 -6 3 -3 7 4 10 -3 8 -19 -1 -16 2 -24 9 -21 7 3 11 10 9 17 -4 18
17 40 34 33 9 -3 14 0 12 7 -2 7 3 15 10 17 13 5 12 -22 -3 -59 -5 -13 -2 -16
14 -13 11 2 23 0 26 -6 4 -5 14 -5 25 1 16 8 18 8 14 -5 -4 -8 -1 -15 7 -15 7
0 9 3 6 6 -11 12 13 43 28 38 24 -10 17 10 -7 21 -13 6 -23 15 -22 20 1 6 -6
15 -14 21 -12 9 -9 11 17 9 17 -1 35 3 38 8 3 6 1 7 -4 4 -15 -9 -24 18 -11
31 5 5 6 12 1 15 -5 3 -14 -3 -21 -14z"/>
<path d="M3050 667 c-11 -19 -11 -20 1 -11 8 6 21 13 28 16 13 4 13 5 0 10 -9
4 -21 -2 -29 -15z"/>
<path d="M2206 650 c-17 -6 -17 -7 -3 -13 8 -3 18 -2 21 4 2 5 3 4 2 -3 -2 -7
-12 -12 -22 -11 -10 1 -13 0 -6 -3 15 -7 16 -34 1 -34 -5 0 -8 4 -5 9 3 4 -5
7 -19 6 -13 -2 -26 3 -29 11 -10 25 -55 -4 -51 -33 1 -14 -4 -27 -12 -30 -12
-5 -12 -7 -2 -14 8 -5 21 -1 32 9 11 9 20 17 21 17 0 -1 11 -10 24 -20 12 -11
30 -20 40 -20 9 0 17 -7 17 -14 0 -9 11 -16 27 -16 15 -1 26 3 25 9 -1 6 7 11
18 11 11 1 19 6 18 11 -2 14 26 11 55 -4 14 -8 22 -9 22 -2 0 5 -6 10 -14 10
-7 0 -19 14 -26 30 -7 18 -20 30 -29 29 -43 -4 -53 13 -21 38 8 6 12 15 7 19
-4 4 -7 2 -7 -4 0 -7 -5 -12 -11 -12 -5 0 -7 6 -3 13 4 6 4 9 0 5 -5 -4 -18
-3 -30 1 -11 5 -30 5 -40 1z m49 -31 c-4 -5 -1 -9 5 -9 6 0 9 -4 5 -9 -3 -6 3
-14 12 -20 22 -12 26 -62 5 -53 -8 3 -18 -1 -22 -8 -5 -8 -16 -15 -25 -16 -9
-1 -14 0 -11 3 7 7 -23 43 -36 43 -5 0 -6 -6 -2 -12 6 -9 3 -9 -9 0 -9 8 -19
22 -22 33 -4 11 -11 17 -16 13 -5 -3 -6 -10 -3 -16 4 -6 -1 -6 -14 1 -35 18
-14 44 26 32 1 -1 3 0 5 1 1 1 12 -4 24 -10 23 -13 57 -6 47 9 -3 5 2 12 10
15 9 3 13 11 9 17 -3 6 -1 7 6 3 6 -4 9 -12 6 -17z m75 -60 c0 -5 -4 -9 -8 -9
-5 0 -9 7 -9 15 0 8 4 12 9 9 4 -3 8 -9 8 -15z"/>
<path d="M2231 603 c4 -23 -4 -30 -28 -29 -16 0 -31 5 -35 11 -12 15 -9 -7 2
-25 8 -13 10 -13 10 -1 0 9 13 2 35 -19 32 -31 42 -30 36 4 -1 5 5 6 13 3 27
-11 27 11 1 37 -27 27 -36 32 -34 19z m23 -45 c-9 -14 -23 2 -17 18 4 12 8 13
14 3 4 -7 5 -17 3 -21z m-10 -27 c-5 -6 -34 20 -34 30 0 5 8 1 18 -8 10 -10
17 -20 16 -22z"/>
<path d="M2120 590 c-9 -6 -10 -10 -3 -10 6 0 15 5 18 10 8 12 4 12 -15 0z"/>
<path d="M2322 617 c-8 -10 -6 -16 9 -25 10 -7 19 -19 19 -26 0 -8 5 -18 12
-22 6 -4 8 -3 4 4 -3 6 -2 13 4 17 7 4 7 12 0 26 -6 10 -7 19 -3 19 9 0 -19
20 -28 20 -4 0 -11 -6 -17 -13z m39 -34 c13 -16 12 -17 -3 -4 -10 7 -18 15
-18 17 0 8 8 3 21 -13z"/>
<path d="M2880 590 c-9 -6 -10 -10 -3 -10 6 0 15 5 18 10 8 12 4 12 -15 0z"/>
<path d="M2626 573 c-3 -8 -11 -11 -17 -7 -8 4 -9 3 -5 -4 4 -7 2 -12 -4 -12
-7 0 -6 -5 2 -14 7 -8 25 -12 41 -10 15 2 27 -1 27 -6 0 -6 5 -10 11 -10 8 0
8 4 1 13 -6 6 -11 17 -11 22 -4 40 -34 58 -45 28z m28 -15 c-3 -4 1 -8 8 -8
10 0 9 -3 -2 -10 -9 -5 -19 -5 -26 0 -6 6 -15 6 -20 2 -4 -4 -3 0 4 9 12 16
46 23 36 7z"/>
<path d="M2546 572 c-3 -5 1 -9 9 -9 8 0 12 4 9 9 -3 4 -7 8 -9 8 -2 0 -6 -4
-9 -8z"/>
<path d="M2715 571 c-11 -10 -4 -23 9 -18 10 4 13 1 10 -8 -3 -8 -10 -13 -14
-12 -5 1 -15 -7 -23 -17 -9 -13 -19 -16 -28 -10 -8 4 -23 9 -34 9 -11 0 -26 4
-34 9 -11 7 -13 4 -9 -12 4 -15 2 -20 -5 -15 -7 4 -5 -2 3 -13 14 -18 14 -18
-3 -5 -9 7 -16 21 -15 30 2 9 -4 17 -12 17 -8 1 -19 3 -25 4 -5 1 -14 2 -19 1
-5 -1 -6 5 -3 13 4 10 0 14 -14 11 -34 -7 -40 -15 -27 -38 7 -12 11 -29 10
-37 -3 -13 -2 -13 7 0 10 13 11 13 11 0 1 -12 3 -12 11 2 5 10 16 15 25 11 9
-3 14 0 12 7 -2 7 4 15 12 17 13 4 13 3 0 -6 -8 -6 -11 -11 -6 -11 5 0 3 -7
-4 -15 -11 -13 -15 -13 -21 -3 -6 9 -9 9 -9 1 0 -6 5 -15 10 -18 6 -4 8 -10 5
-15 -6 -9 21 -33 40 -36 14 -2 14 13 2 34 -8 12 -7 13 16 16 6 1 12 11 11 22
0 11 6 21 13 21 7 0 13 -3 13 -7 0 -4 6 -7 13 -8 26 -2 47 -8 54 -17 4 -4 2
-5 -6 0 -10 6 -12 4 -6 -6 7 -11 6 -12 -7 -2 -8 7 -18 10 -21 6 -4 -3 -7 -1
-7 5 0 14 -22 12 -32 -3 -13 -17 -9 -28 6 -16 11 9 19 9 35 0 17 -11 23 -10
39 4 19 17 21 17 41 -9 22 -27 22 -27 41 -8 18 18 18 21 3 51 -8 18 -19 30
-23 28 -14 -9 -21 14 -11 33 8 14 6 18 -10 18 -11 0 -22 -2 -24 -5z m-205 -41
c3 -1 8 -2 13 -1 11 2 8 -9 -7 -24 -14 -15 -21 -11 -39 22 -6 10 11 11 33 3z
m248 -18 c12 -7 20 -17 17 -22 -3 -5 -1 -12 5 -15 8 -5 7 -11 -1 -21 -10 -13
-16 -11 -40 12 -15 14 -30 26 -33 25 -6 -1 -6 7 1 26 5 13 20 12 51 -5z m-188
-47 c-8 -9 -8 -15 0 -20 6 -3 8 -11 4 -16 -7 -13 -33 7 -30 24 3 21 17 37 27
31 6 -4 6 -11 -1 -19z"/>
<path d="M2490 520 c0 -5 5 -10 11 -10 5 0 7 5 4 10 -3 6 -8 10 -11 10 -2 0
-4 -4 -4 -10z"/>
<path d="M2720 508 c-8 -7 -13 -12 -11 -10 3 1 17 -9 32 -24 16 -15 29 -21 33
-16 4 6 2 13 -4 17 -6 4 -7 12 -4 18 4 7 4 9 -1 5 -4 -4 -13 -1 -19 7 -9 13
-14 13 -26 3z m35 -28 c10 -11 16 -20 13 -20 -3 0 -13 9 -23 20 -10 11 -16 20
-13 20 3 0 13 -9 23 -20z"/>
<path d="M1690 759 c0 -5 5 -7 10 -4 6 3 10 8 10 11 0 2 -4 4 -10 4 -5 0 -10
-5 -10 -11z"/>
<path d="M1836 751 c-2 -3 2 -14 9 -24 11 -15 13 -16 19 -2 3 8 7 18 8 22 4 8
-31 13 -36 4z m34 -7 c0 -8 -19 -13 -24 -6 -3 5 1 9 9 9 8 0 15 -2 15 -3z"/>
<path d="M3242 773 c8 -10 6 -19 -8 -36 l-19 -22 26 23 c14 12 27 21 30 20 2
-2 -1 2 -8 8 -7 6 -11 13 -8 16 3 2 -2 5 -10 5 -11 0 -12 -4 -3 -14z"/>
<path d="M3450 740 c0 -5 5 -10 11 -10 5 0 7 5 4 10 -3 6 -8 10 -11 10 -2 0
-4 -4 -4 -10z"/>
<path d="M3505 730 c-3 -6 1 -7 9 -4 18 7 21 14 7 14 -6 0 -13 -4 -16 -10z"/>
<path d="M3523 688 c0 -13 1 -17 4 -10 3 6 10 9 16 5 7 -4 6 1 -2 10 -17 21
-17 21 -18 -5z"/>
<path d="M3569 644 c7 -14 7 -24 0 -31 -7 -7 -7 -13 -1 -17 5 -3 14 0 20 7 8
9 5 19 -9 37 -16 20 -18 20 -10 4z"/>
<path d="M1589 740 c-3 -20 -4 -25 -14 -40 -8 -13 -7 -13 11 0 25 20 34 32 28
42 -7 11 -24 10 -25 -2z"/>
<path d="M1707 685 c3 -8 9 -12 14 -9 12 7 11 11 -5 17 -10 4 -13 1 -9 -8z"/>
<path d="M1747 604 c3 -7 9 -14 14 -14 14 0 10 17 -5 23 -10 4 -13 1 -9 -9z"/>
<path d="M2045 450 c-6 -9 -4 -11 5 -5 10 6 12 4 6 -11 -4 -10 -10 -26 -13
-34 -4 -13 -4 -13 6 0 9 12 13 13 20 2 7 -11 9 -11 14 0 7 21 -28 65 -38 48z"/>
<path d="M2140 442 c0 -7 -6 -12 -13 -12 -7 0 -18 -10 -26 -21 -11 -18 -11
-23 1 -30 19 -12 22 -11 46 14 18 19 19 24 6 41 -8 11 -14 14 -14 8z m2 -44
c-11 -11 -25 -17 -31 -13 -18 10 6 35 26 28 12 -5 14 -3 8 7 -6 9 -4 11 4 5
10 -6 8 -12 -7 -27z"/>
<path d="M3266 631 c-4 -5 -2 -12 4 -16 6 -4 7 -11 4 -17 -4 -6 -2 -8 4 -5 10
7 11 32 0 42 -3 4 -9 2 -12 -4z"/>
<path d="M3176 487 c3 -10 9 -15 12 -12 3 3 0 11 -7 18 -10 9 -11 8 -5 -6z"/>
<path d="M1711 587 c2 -1 13 -9 24 -17 19 -14 19 -14 6 3 -7 9 -18 17 -24 17
-6 0 -8 -1 -6 -3z"/>
<path d="M1774 568 c-4 -7 -4 -10 1 -6 4 4 15 2 24 -5 14 -11 14 -10 2 6 -16
20 -18 21 -27 5z"/>
<path d="M1630 560 c0 -5 5 -10 10 -10 6 0 10 5 10 10 0 6 -4 10 -10 10 -5 0
-10 -4 -10 -10z"/>
<path d="M1870 460 c6 -11 13 -20 16 -20 2 0 0 9 -6 20 -6 11 -13 20 -16 20
-2 0 0 -9 6 -20z"/>
<path d="M3160 400 c0 -5 5 -10 11 -10 5 0 7 5 4 10 -3 6 -8 10 -11 10 -2 0
-4 -4 -4 -10z"/>
<path d="M3345 490 c10 -11 20 -18 23 -16 5 6 -23 36 -34 36 -4 0 1 -9 11 -20z"/>
<path d="M1709 545 c-1 -3 -2 -9 -3 -14 -2 -14 -16 -26 -16 -14 0 5 -7 10 -15
10 -12 0 -12 -3 3 -17 9 -10 19 -13 20 -8 2 4 9 5 14 2 6 -4 8 -2 4 4 -3 5 0
13 6 15 10 4 10 6 0 6 -7 1 -10 6 -7 11 3 6 4 10 1 10 -3 0 -7 -2 -7 -5z"/>
<path d="M3460 500 c8 -5 20 -10 25 -10 6 0 3 5 -5 10 -8 5 -19 10 -25 10 -5
0 -3 -5 5 -10z"/>
<path d="M2960 449 c-12 -9 -12 -10 4 -5 13 5 17 2 13 -9 -4 -8 -2 -17 3 -20
15 -9 20 11 7 28 -9 13 -16 14 -27 6z"/>
<path d="M2361 431 c-14 -10 -19 -21 -13 -24 5 -4 17 4 26 18 20 30 18 30 -13
6z"/>
<path d="M2452 446 c4 -5 2 -16 -5 -25 -10 -14 -10 -14 4 -3 14 11 20 9 36
-14 l20 -27 -2 24 c-1 13 -4 22 -7 19 -3 -3 -16 4 -29 15 -13 11 -21 16 -17
11z"/>
<path d="M2392 427 c-9 -10 -6 -13 13 -13 19 0 22 3 13 13 -6 7 -12 13 -13 13
-1 0 -7 -6 -13 -13z"/>
<path d="M2779 414 c-7 -9 -6 -12 6 -10 22 3 40 23 20 23 -8 0 -20 -6 -26 -13z"/>
<path d="M2534 388 c-4 -7 -4 -10 1 -6 4 4 15 2 24 -5 14 -11 14 -10 2 6 -16
20 -18 21 -27 5z"/>
<path d="M2547 359 c7 -7 15 -10 18 -7 3 3 -2 9 -12 12 -14 6 -15 5 -6 -5z"/>
<path d="M2666 354 c-9 -24 -7 -31 5 -12 5 10 17 15 27 12 14 -5 15 -4 2 5
-20 15 -27 14 -34 -5z"/>
<path d="M3237 393 c-4 -3 -7 -11 -7 -17 0 -6 5 -5 12 2 6 6 9 14 7 17 -3 3
-9 2 -12 -2z"/>
<path d="M3595 771 c-8 -7 -6 -21 3 -21 5 0 16 6 26 13 16 12 16 13 -4 13 -11
0 -23 -2 -25 -5z"/>
<path d="M3615 650 c-4 -7 -2 -16 6 -21 11 -6 10 -12 -5 -27 -11 -13 -14 -22
-6 -27 5 -3 8 -10 5 -15 -6 -10 23 -35 32 -26 3 3 0 6 -7 6 -9 0 -8 5 5 13 12
10 14 16 7 21 -7 4 -16 5 -20 2 -5 -3 -9 1 -9 8 0 9 7 12 15 8 12 -4 14 -1 8
14 -4 10 -9 24 -10 31 -3 20 -13 25 -21 13z"/>
<path d="M3427 453 c-4 -3 -7 -10 -7 -14 0 -11 41 -49 52 -49 5 0 -2 11 -16
24 -26 23 -36 43 -16 31 6 -3 10 -1 10 4 0 12 -13 14 -23 4z"/>
<path d="M3540 419 c0 -5 5 -7 10 -4 6 3 10 8 10 11 0 2 -4 4 -10 4 -5 0 -10
-5 -10 -11z"/>
<path d="M1608 402 c9 -10 19 -14 21 -9 2 5 -3 13 -10 18 -24 15 -30 10 -11
-9z"/>
<path d="M3511 413 c3 -21 -2 -33 -13 -27 -7 5 -8 3 -3 -6 6 -10 11 -9 22 5
16 22 17 35 3 35 -5 0 -9 -3 -9 -7z"/>
<path d="M1034 380 c0 -13 4 -16 10 -10 7 7 7 13 0 20 -6 6 -10 3 -10 -10z"/>
<path d="M1590 390 c0 -6 -6 -8 -12 -4 -7 4 -9 3 -5 -1 10 -12 37 -15 37 -5 0
5 -4 12 -10 15 -5 3 -10 1 -10 -5z"/>
<path d="M3436 387 c3 -10 9 -15 12 -12 3 3 0 11 -7 18 -10 9 -11 8 -5 -6z"/>
<path d="M3391 369 c-13 -10 -19 -19 -13 -19 5 0 15 7 22 15 12 14 15 12 31
-12 11 -15 19 -23 19 -18 0 6 -8 20 -18 32 -17 22 -17 22 -41 2z"/>
<path d="M1540 362 c0 -5 7 -9 15 -9 8 0 15 4 15 9 0 4 -7 8 -15 8 -8 0 -15
-4 -15 -8z"/>
<path d="M1615 361 c-3 -5 -2 -12 3 -15 5 -3 9 1 9 9 0 17 -3 19 -12 6z"/>
<path d="M1685 362 c-15 -11 -16 -29 0 -29 7 0 11 7 7 15 -4 11 -1 13 8 7 9
-5 11 -4 6 3 -8 14 -8 14 -21 4z"/>
<path d="M1796 355 c4 -8 8 -15 10 -15 2 0 4 7 4 15 0 8 -4 15 -10 15 -5 0 -7
-7 -4 -15z"/>
<path d="M1896 353 c-3 -7 1 -16 9 -19 8 -4 12 -10 9 -15 -3 -5 2 -6 12 -2 14
5 14 7 -5 18 -22 11 -19 27 4 19 7 -3 16 -1 19 4 3 5 -5 10 -19 10 -13 0 -26
-7 -29 -15z"/>
<path d="M3468 363 c7 -3 16 -2 19 1 4 3 -2 6 -13 5 -11 0 -14 -3 -6 -6z"/>
<path d="M3520 366 c0 -2 7 -7 16 -10 8 -3 12 -2 9 4 -6 10 -25 14 -25 6z"/>
<path d="M1752 344 c-7 -8 -8 -14 -3 -14 10 0 25 19 20 25 -2 1 -10 -3 -17
-11z"/>
<path d="M1826 352 c-3 -5 1 -9 9 -9 8 0 15 4 15 9 0 4 -4 8 -9 8 -6 0 -12 -4
-15 -8z"/>
<path d="M3590 350 c0 -5 5 -10 10 -10 6 0 10 5 10 10 0 6 -4 10 -10 10 -5 0
-10 -4 -10 -10z"/>
<path d="M1512 329 c-7 -12 -11 -24 -8 -27 3 -3 6 0 6 7 0 7 4 10 8 7 4 -2 9
4 9 15 2 24 1 24 -15 -2z"/>
<path d="M1586 335 c4 -8 11 -15 16 -15 6 0 5 6 -2 15 -7 8 -14 15 -16 15 -2
0 -1 -7 2 -15z"/>
<path d="M3255 341 c-3 -5 0 -13 6 -17 8 -5 9 -3 4 6 -6 10 -4 12 8 7 10 -3
17 -2 17 3 0 13 -27 13 -35 1z"/>
<path d="M3335 339 c-8 -12 0 -22 20 -25 8 -1 13 2 9 7 -3 5 -10 6 -16 3 -7
-5 -9 -1 -5 9 7 19 2 23 -8 6z"/>
<path d="M3410 345 c5 -22 -1 -29 -11 -15 -9 13 -10 13 -6 -1 3 -9 0 -23 -6
-30 -10 -11 -9 -11 5 0 9 7 21 10 26 7 10 -6 9 30 -2 41 -4 5 -7 4 -6 -2z"/>
<path d="M3507 333 c3 -7 6 -13 8 -13 2 0 5 6 8 13 3 8 -1 14 -8 14 -7 0 -11
-6 -8 -14z"/>
<path d="M1470 331 c0 -6 4 -13 10 -16 6 -3 7 1 4 9 -7 18 -14 21 -14 7z"/>
<path d="M1997 321 c-4 -17 -3 -21 5 -13 5 5 8 16 6 23 -3 8 -7 3 -11 -10z"/>
<path d="M2086 325 c-3 -8 -1 -15 3 -15 5 0 11 7 15 15 3 8 1 15 -3 15 -5 0
-11 -7 -15 -15z"/>
<path d="M3092 320 c0 -14 2 -19 5 -12 2 6 2 18 0 25 -3 6 -5 1 -5 -13z"/>
<path d="M3120 325 c7 -8 17 -12 23 -8 7 4 8 0 3 -13 -5 -14 -4 -16 5 -7 13
13 3 37 -12 28 -5 -4 -9 -1 -9 4 0 6 -5 11 -11 11 -8 0 -8 -5 1 -15z"/>
<path d="M1790 318 c0 -3 9 -6 20 -5 11 1 20 5 20 9 0 3 -9 6 -20 5 -11 -1
-20 -5 -20 -9z"/>
<path d="M1845 320 c-3 -6 1 -7 9 -4 18 7 21 14 7 14 -6 0 -13 -4 -16 -10z"/>
<path d="M2296 315 c-3 -10 5 -20 27 -30 22 -11 27 -12 15 -2 -16 13 -16 15 0
30 9 9 11 17 5 17 -6 0 -13 -7 -17 -15 -3 -8 -11 -15 -17 -15 -8 0 -8 4 1 15
7 9 8 15 2 15 -5 0 -12 -7 -16 -15z"/>
<path d="M2364 321 c4 -5 0 -11 -6 -14 -7 -2 -9 -8 -5 -13 4 -5 12 -2 17 6 13
20 12 30 -1 30 -5 0 -8 -4 -5 -9z"/>
<path d="M2485 320 c4 -6 1 -19 -7 -28 -12 -15 -11 -16 5 -3 19 15 23 41 6 41
-5 0 -7 -5 -4 -10z"/>
<path d="M2582 310 c-7 -11 -8 -20 -3 -20 9 0 24 30 18 36 -1 2 -8 -6 -15 -16z"/>
<path d="M2920 322 c0 -4 5 -13 11 -19 7 -7 3 -12 -16 -17 -15 -4 -25 -9 -23
-12 3 -2 18 0 33 6 21 8 25 13 16 24 -6 7 -8 16 -4 19 3 4 1 7 -5 7 -7 0 -12
-4 -12 -8z"/>
<path d="M3215 319 c-4 -6 -4 -13 -1 -16 3 -4 6 -1 6 6 0 7 5 9 10 6 6 -3 10
-1 10 4 0 14 -17 14 -25 0z"/>
<path d="M3550 319 c0 -5 5 -7 10 -4 6 3 10 8 10 11 0 2 -4 4 -10 4 -5 0 -10
-5 -10 -11z"/>
<path d="M3599 313 c-12 -16 -12 -17 2 -6 9 7 19 10 22 6 4 -3 7 -1 7 5 0 17
-16 15 -31 -5z"/>
<path d="M3470 316 c0 -2 8 -10 18 -17 15 -13 16 -12 3 4 -13 16 -21 21 -21
13z"/>
<path d="M1541 301 c-10 -7 -7 -9 12 -8 14 1 23 5 20 10 -6 9 -15 9 -32 -2z"/>
<path d="M1596 298 c3 -5 10 -6 15 -3 13 9 11 12 -6 12 -8 0 -12 -4 -9 -9z"/>
<path d="M1666 298 c3 -5 10 -6 15 -3 13 9 11 12 -6 12 -8 0 -12 -4 -9 -9z"/>
<path d="M1708 303 c7 -3 16 -2 19 1 4 3 -2 6 -13 5 -11 0 -14 -3 -6 -6z"/>
<path d="M1870 303 c5 -2 8 -9 5 -13 -3 -5 -1 -11 4 -14 5 -4 8 2 7 11 -2 9
-8 18 -15 19 -6 1 -7 0 -1 -3z"/>
<path d="M2019 308 c0 -2 -2 -13 -3 -25 -2 -19 0 -21 12 -11 9 8 10 14 3 16
-6 2 -9 8 -5 13 3 5 3 9 0 9 -3 0 -6 -1 -7 -2z"/>
<path d="M2110 300 c0 -5 5 -10 10 -10 6 0 10 5 10 10 0 6 -4 10 -10 10 -5 0
-10 -4 -10 -10z"/>
<path d="M3070 301 c0 -10 29 -36 34 -30 1 2 -6 12 -16 22 -10 9 -18 13 -18 8z"/>
<path d="M3110 300 c0 -5 5 -10 11 -10 5 0 7 5 4 10 -3 6 -8 10 -11 10 -2 0
-4 -4 -4 -10z"/>
<path d="M3175 303 c3 -3 0 -11 -5 -18 -7 -8 -5 -12 4 -12 14 0 16 22 3 32 -4
3 -5 2 -2 -2z"/>
<path d="M3559 293 c-13 -16 -12 -17 4 -4 16 13 21 21 13 21 -2 0 -10 -8 -17
-17z"/>
<path d="M2181 297 c2 -1 14 -11 27 -21 12 -11 22 -16 22 -13 0 10 -31 37 -42
37 -6 0 -9 -1 -7 -3z"/>
<path d="M2601 295 c0 -5 3 -16 8 -23 7 -11 9 -10 14 3 4 9 3 14 -2 10 -5 -3
-12 1 -14 7 -3 7 -6 9 -6 3z"/>
<path d="M2670 286 c0 -8 4 -17 9 -20 5 -4 7 3 4 14 -6 23 -13 26 -13 6z"/>
<path d="M2712 284 c-7 -8 -8 -14 -3 -14 10 0 25 19 20 25 -2 1 -10 -3 -17
-11z"/>
<path d="M2831 284 c0 -11 3 -14 6 -6 3 7 2 16 -1 19 -3 4 -6 -2 -5 -13z"/>
<path d="M3292 291 c-11 -7 -11 -9 0 -14 9 -3 15 1 15 9 0 8 -1 14 -1 14 -1 0
-7 -4 -14 -9z"/>
<path d="M3635 290 c3 -5 8 -10 11 -10 2 0 4 5 4 10 0 6 -5 10 -11 10 -5 0 -7
-4 -4 -10z"/>
<path d="M1470 280 c0 -4 7 -7 15 -6 23 3 26 12 5 13 -11 1 -20 -2 -20 -7z"/>
<path d="M1633 275 c0 -8 4 -12 9 -9 5 3 6 10 3 15 -9 13 -12 11 -12 -6z"/>
<path d="M1850 281 c0 -6 4 -13 10 -16 6 -3 7 1 4 9 -7 18 -14 21 -14 7z"/>
<path d="M2078 283 c7 -3 16 -2 19 1 4 3 -2 6 -13 5 -11 0 -14 -3 -6 -6z"/>
<path d="M2144 269 c0 -13 3 -15 13 -7 7 6 13 12 13 13 0 2 -6 5 -13 8 -7 3
-13 -3 -13 -14z"/>
<path d="M2375 281 c-3 -5 0 -13 6 -17 7 -4 9 -3 5 4 -3 5 0 13 6 15 9 4 10 6
1 6 -6 1 -14 -3 -18 -8z"/>
<path d="M2500 279 c0 -4 10 -6 21 -4 32 6 34 13 4 13 -14 0 -25 -4 -25 -9z"/>
<path d="M3246 282 c-3 -5 1 -9 9 -9 8 0 15 4 15 9 0 4 -4 8 -9 8 -6 0 -12 -4
-15 -8z"/>
<path d="M3400 280 c-9 -6 -10 -10 -3 -10 6 0 15 5 18 10 8 12 4 12 -15 0z"/>
<path d="M2110 265 c-11 -13 -10 -14 4 -9 9 3 16 10 16 15 0 13 -6 11 -20 -6z"/>
<path d="M2440 276 c0 -2 7 -7 16 -10 8 -3 12 -2 9 4 -6 10 -25 14 -25 6z"/>
<path d="M2560 276 c0 -2 7 -7 16 -10 8 -3 12 -2 9 4 -6 10 -25 14 -25 6z"/>
<path d="M3727 274 c-3 -4 -2 -14 3 -24 5 -10 6 -21 2 -26 -4 -5 1 -2 10 5 14
10 15 18 7 32 -11 21 -13 22 -22 13z"/>
<path d="M1443 258 c-11 -19 -13 -39 -1 -32 5 3 7 9 4 12 -3 3 -1 11 5 19 6 7
9 13 6 13 -3 0 -9 -6 -14 -12z"/>
<path d="M1910 259 c0 -5 5 -7 10 -4 6 3 10 8 10 11 0 2 -4 4 -10 4 -5 0 -10
-5 -10 -11z"/>
<path d="M1946 258 c3 -4 9 -8 15 -8 5 0 9 4 9 8 0 5 -7 9 -15 9 -8 0 -12 -4
-9 -9z"/>
<path d="M2066 258 c3 -5 10 -6 15 -3 13 9 11 12 -6 12 -8 0 -12 -4 -9 -9z"/>
<path d="M2194 253 c16 -20 36 -23 36 -6 0 4 -3 3 -7 0 -3 -4 -16 1 -27 10
-21 18 -21 18 -2 -4z"/>
<path d="M2300 266 c0 -2 9 -6 20 -9 11 -3 18 -1 14 4 -5 9 -34 13 -34 5z"/>
<path d="M2473 252 c-8 -14 -8 -19 1 -19 7 0 13 9 13 19 1 10 1 18 0 18 -1 0
-7 -8 -14 -18z"/>
<path d="M2547 255 c3 -8 9 -12 14 -9 12 7 11 11 -5 17 -10 4 -13 1 -9 -8z"/>
<path d="M2750 261 c0 -6 4 -12 8 -15 5 -3 9 1 9 9 0 8 -4 15 -9 15 -4 0 -8
-4 -8 -9z"/>
<path d="M3027 259 c7 -7 15 -10 18 -7 3 3 -2 9 -12 12 -14 6 -15 5 -6 -5z"/>
<path d="M3530 259 c0 -5 5 -7 10 -4 6 3 10 8 10 11 0 2 -4 4 -10 4 -5 0 -10
-5 -10 -11z"/>
<path d="M2255 240 c2 -27 10 -33 12 -10 1 11 -2 22 -6 24 -4 3 -7 -4 -6 -14z"/>
<path d="M2655 250 c-4 -6 -10 -8 -14 -6 -4 3 -8 -1 -8 -9 0 -13 4 -12 19 2
18 16 22 23 14 23 -3 0 -8 -5 -11 -10z"/>
<path d="M2979 248 c15 -21 31 -23 31 -6 0 6 -3 8 -7 5 -3 -4 -13 -1 -22 6
-14 11 -14 10 -2 -5z"/>
<path d="M3376 238 c3 -5 10 -6 15 -3 13 9 11 12 -6 12 -8 0 -12 -4 -9 -9z"/>
<path d="M3700 235 c-7 -9 -11 -17 -9 -20 3 -2 10 5 17 15 14 24 10 26 -8 5z"/>
<path d="M1394 219 c-3 -6 -1 -16 6 -22 10 -9 11 -9 5 2 -4 8 -2 17 6 22 9 6
10 9 2 9 -6 0 -15 -5 -19 -11z"/>
<path d="M1495 220 c3 -5 8 -10 11 -10 2 0 4 5 4 10 0 6 -5 10 -11 10 -5 0 -7
-4 -4 -10z"/>
<path d="M1710 220 c0 -5 5 -10 11 -10 5 0 7 5 4 10 -3 6 -8 10 -11 10 -2 0
-4 -4 -4 -10z"/>
<path d="M2386 218 c3 -5 10 -6 15 -3 13 9 11 12 -6 12 -8 0 -12 -4 -9 -9z"/>
<path d="M3555 221 c-3 -5 -2 -12 3 -15 5 -3 9 1 9 9 0 17 -3 19 -12 6z"/>
<path d="M1176 162 c-2 -4 4 -8 14 -8 10 0 16 4 14 8 -3 4 -9 8 -14 8 -5 0
-11 -4 -14 -8z"/>
<path d="M3855 160 c3 -5 8 -10 11 -10 2 0 4 5 4 10 0 6 -5 10 -11 10 -5 0 -7
-4 -4 -10z"/>
<path d="M3890 159 c0 -5 5 -7 10 -4 6 3 10 8 10 11 0 2 -4 4 -10 4 -5 0 -10
-5 -10 -11z"/>
<path d="M3919 153 c-13 -16 -12 -17 4 -4 14 11 20 11 35 0 15 -13 16 -12 3 4
-7 9 -17 17 -21 17 -4 0 -14 -8 -21 -17z"/>
<path d="M3990 163 c0 -6 8 -17 18 -24 16 -13 16 -13 2 6 -8 11 -16 22 -17 24
-2 2 -3 0 -3 -6z"/>
<path d="M3830 139 c0 -5 5 -7 10 -4 6 3 10 8 10 11 0 2 -4 4 -10 4 -5 0 -10
-5 -10 -11z"/>
</g>
</svg>
